<svg width="169" height="80" viewBox="0 0 169 80" fill="none" xmlns="http://www.w3.org/2000/svg">
<path d="M29.2082 56.9199H30.5089V62.462H29.2506L27.3986 59.1678V62.462H26.112V57.9237H25.6172V56.9199H27.3703L29.2082 60.214V56.9199Z" fill="#F57F3B"/>
<path d="M31.5127 60.5527C31.5127 60.27 31.5693 59.9872 31.6682 59.7186C31.7672 59.45 31.9086 59.2238 32.0782 59.0259C32.2479 58.8279 32.4458 58.6724 32.6579 58.5593C32.8699 58.4462 33.0961 58.3896 33.3365 58.3896C33.5768 58.3896 33.6899 58.4321 33.8596 58.5027C34.0292 58.5734 34.1989 58.6865 34.3544 58.8421V58.531H35.5985V61.5141H36.0792V62.4613H34.5806L34.4816 62.0796C34.3685 62.2351 34.213 62.3624 34.0292 62.4472C33.8454 62.532 33.6192 62.5886 33.3789 62.5886C33.1386 62.5886 32.8699 62.532 32.6437 62.4189C32.4175 62.3058 32.2337 62.1645 32.0641 61.9807C31.8944 61.7969 31.7672 61.5707 31.6824 61.3303C31.5834 61.0758 31.541 60.8214 31.541 60.5386H31.5127V60.5527ZM32.7427 60.5103C32.7427 60.6658 32.771 60.8072 32.7992 60.9486C32.8417 61.09 32.8982 61.2031 32.9689 61.3162C33.0396 61.4151 33.1386 61.5 33.2375 61.5565C33.3365 61.6131 33.4496 61.6414 33.5627 61.6414C33.7748 61.6414 33.9727 61.5424 34.1141 61.3445C34.2696 61.1465 34.3403 60.8638 34.3403 60.5103C34.3403 60.1569 34.312 60.171 34.2837 60.0296C34.2413 59.8883 34.1848 59.761 34.1141 59.6621C34.0434 59.5631 33.9585 59.4783 33.8596 59.4217C33.7606 59.3652 33.6617 59.3369 33.5485 59.3369C33.4354 59.3369 33.3223 59.3652 33.2234 59.4358C33.1244 59.5065 33.0396 59.5914 32.9689 59.6903C32.8982 59.8034 32.8275 59.9307 32.7992 60.0579C32.7568 60.1993 32.7286 60.3407 32.7286 60.4962L32.7427 60.5103Z" fill="#F57F3B"/>
<path d="M39.4156 62.1365C39.2883 62.2778 39.1328 62.3909 38.9632 62.4758C38.7935 62.5606 38.5956 62.603 38.3976 62.603C38.1997 62.603 38.0159 62.5606 37.8463 62.4899C37.6766 62.4192 37.5211 62.3061 37.3939 62.1789C37.2666 62.0516 37.1677 61.8961 37.0828 61.7265C37.0121 61.5568 36.9697 61.3589 36.9697 61.1609V58.5596H38.2139V60.9489C38.2139 61.1468 38.2563 61.3165 38.3411 61.4578C38.4259 61.5992 38.5532 61.6699 38.7228 61.6699C38.8925 61.6699 39.048 61.5992 39.1611 61.4437C39.2742 61.3023 39.3307 61.1185 39.3307 60.8923V58.5596H40.5607V61.5427H41.0414V62.4899H39.458L39.4297 62.1647V62.1365H39.4156Z" fill="#F57F3B"/>
<path d="M41.6919 56.9194H43.3884V59.8035L44.6184 58.5453H45.8767L44.3781 60.0863L45.9332 62.4614H44.7174L43.6853 60.8073L43.3884 61.1325V62.4614H42.1584V57.8525H41.6777V56.9053L41.6919 56.9194Z" fill="#F57F3B"/>
<path d="M51.9274 58.5314C51.9274 58.4324 51.8991 58.3476 51.8567 58.2628C51.8143 58.1779 51.7577 58.1072 51.6729 58.0507C51.6022 57.9941 51.5032 57.9376 51.4043 57.9093C51.3053 57.881 51.1922 57.8528 51.0791 57.8528C50.966 57.8528 50.867 57.8528 50.7822 57.8952C50.6974 57.9376 50.6408 57.9659 50.5843 58.0083C50.5419 58.0507 50.4995 58.1072 50.4853 58.1638C50.457 58.2203 50.457 58.2769 50.457 58.3334C50.457 58.4183 50.4853 58.489 50.5277 58.5455C50.5701 58.6021 50.6408 58.6586 50.7257 58.701C50.8105 58.7434 50.9095 58.7859 51.0084 58.8283C51.1215 58.8707 51.2346 58.899 51.3619 58.9414C51.6022 59.0121 51.8284 59.0969 52.0546 59.1676C52.2808 59.2524 52.4929 59.3514 52.6767 59.4786C52.8605 59.6058 53.016 59.7755 53.1291 59.9593C53.2422 60.1572 53.2988 60.3976 53.2988 60.6945C53.2988 60.9914 53.2563 61.2034 53.1574 61.4296C53.0584 61.6558 52.917 61.8538 52.7332 62.0234C52.5494 62.1931 52.3232 62.3345 52.0546 62.4334C51.786 62.5324 51.475 62.5748 51.1357 62.5748C50.7964 62.5748 50.4712 62.5183 50.1884 62.4193C49.9198 62.3203 49.6795 62.1789 49.4957 61.9952C49.2977 61.8255 49.1564 61.6134 49.0574 61.3731C48.9584 61.1327 48.916 60.8783 48.916 60.6096H50.047C50.047 60.7369 50.1036 60.85 50.1601 60.9489C50.2167 61.062 50.3015 61.1469 50.4005 61.2317C50.4995 61.3165 50.6126 61.3731 50.7398 61.4296C50.867 61.4862 51.0084 61.5003 51.1639 61.5003C51.4325 61.5003 51.6588 61.4296 51.8143 61.2883C51.9698 61.1469 52.0546 60.9772 52.0546 60.7652C52.0546 60.5531 52.0263 60.5531 51.9839 60.4683C51.9274 60.3834 51.8567 60.3127 51.7719 60.2562C51.687 60.1996 51.5881 60.1572 51.4608 60.1148C51.3477 60.0724 51.2205 60.03 51.0932 59.9876C50.867 59.9169 50.6408 59.8462 50.4146 59.7755C50.1884 59.7048 49.9905 59.6058 49.8067 59.4786C49.6229 59.3514 49.4815 59.21 49.3684 59.0262C49.2553 58.8565 49.1988 58.6303 49.1988 58.3617C49.1988 58.0931 49.2412 57.9376 49.326 57.7538C49.4108 57.57 49.5239 57.3862 49.6936 57.2307C49.8633 57.0752 50.0612 56.9621 50.3015 56.8772C50.5419 56.7924 50.8388 56.75 51.1639 56.75C51.4891 56.75 51.7719 56.7924 52.0122 56.8914C52.2525 56.9762 52.4505 57.1035 52.6201 57.259C52.7757 57.4145 52.9029 57.5983 52.9736 57.8103C53.0443 58.0224 53.0867 58.2486 53.0867 58.489H51.9415V58.5314H51.9274Z" fill="#F57F3B"/>
<path d="M53.9355 58.5309H54.4162V57.3574H55.6462V58.5309H56.6076V59.3791H55.6462V61.2312C55.6462 61.3302 55.6462 61.4009 55.6745 61.4433C55.7028 61.4857 55.7452 61.4998 55.8159 61.4998H56.6217V62.4612H55.519C55.1655 62.4612 54.8969 62.3764 54.7131 62.2067C54.5152 62.0371 54.4304 61.7543 54.4304 61.3867V59.3791H53.9497V58.5309H53.9355Z" fill="#F57F3B"/>
<path d="M61.2583 60.4967C61.2583 60.7936 61.2018 61.0622 61.1028 61.3167C61.0038 61.5712 60.8625 61.7974 60.6787 61.9812C60.4949 62.165 60.2828 62.3205 60.0425 62.4336C59.8021 62.5467 59.5335 62.6032 59.2507 62.6032C58.968 62.6032 58.6994 62.5467 58.459 62.4336C58.2187 62.3205 58.0066 62.1791 57.8228 61.9812C57.639 61.7974 57.4977 61.5712 57.3987 61.3167C57.2997 61.0622 57.2432 60.7936 57.2432 60.4967C57.2432 60.1998 57.2997 59.9453 57.3987 59.6908C57.4977 59.4364 57.639 59.2102 57.8228 59.0264C58.0066 58.8284 58.2187 58.6871 58.459 58.574C58.6994 58.4609 58.968 58.4043 59.2507 58.4043C59.5335 58.4043 59.8021 58.4609 60.0425 58.574C60.2828 58.6871 60.4949 58.8284 60.6787 59.0264C60.8625 59.2243 61.0038 59.4364 61.1028 59.6908C61.2018 59.9453 61.2583 60.2139 61.2583 60.4967ZM60.0283 60.5108C60.0283 60.3129 60 60.1433 59.9576 60.0019C59.9152 59.8605 59.8445 59.7333 59.7738 59.6343C59.7032 59.5353 59.6183 59.4646 59.5194 59.4222C59.4204 59.3798 59.3356 59.3515 59.2507 59.3515C59.1659 59.3515 59.067 59.3798 58.9821 59.4222C58.8832 59.4646 58.8125 59.5495 58.7276 59.6484C58.6569 59.7474 58.6004 59.8746 58.5438 60.016C58.5014 60.1574 58.4732 60.327 58.4732 60.5108C58.4732 60.6946 58.5014 60.8643 58.5438 61.0057C58.5863 61.147 58.6428 61.2601 58.7276 61.3591C58.8125 61.4581 58.8832 61.5288 58.9821 61.5712C59.0811 61.6136 59.1659 61.6419 59.2649 61.6419C59.3638 61.6419 59.4487 61.6136 59.5476 61.5712C59.6325 61.5288 59.7173 61.4581 59.8021 61.3591C59.8728 61.2601 59.9435 61.147 59.9859 61.0057C60.0283 60.8643 60.0566 60.7088 60.0566 60.5108H60.0283Z" fill="#F57F3B"/>
<path d="M62.1354 59.6767C62.1354 59.507 62.1637 59.3374 62.2344 59.196C62.3051 59.0405 62.3899 58.9133 62.5172 58.786C62.6444 58.6729 62.7999 58.574 62.9978 58.5033C63.1958 58.4326 63.4078 58.4043 63.6482 58.4043C63.8885 58.4043 64.1289 58.4467 64.3127 58.5174C64.4965 58.5881 64.6661 58.6871 64.7933 58.8143C64.9206 58.9415 65.0196 59.097 65.0761 59.2667C65.1327 59.4364 65.1751 59.6343 65.1751 59.8322H64.2844C64.2844 59.7191 64.242 59.6201 64.1996 59.5495C64.1571 59.4788 64.1147 59.4222 64.0582 59.3798C64.0016 59.3374 63.9309 59.3091 63.8603 59.295C63.7896 59.2808 63.7189 59.2667 63.6482 59.2667C63.5068 59.2667 63.4078 59.295 63.3513 59.3657C63.2947 59.4364 63.2806 59.507 63.2806 59.5777C63.2806 59.7191 63.3513 59.8181 63.4644 59.8746C63.5916 59.9312 63.7471 59.9877 63.9168 60.0443C64.0582 60.0867 64.2137 60.1291 64.3692 60.1857C64.5247 60.2422 64.6802 60.3129 64.8075 60.4119C64.9347 60.5108 65.0478 60.6239 65.1327 60.7512C65.2175 60.8926 65.2599 61.0622 65.2599 61.2601C65.2599 61.4581 65.2599 61.3591 65.2599 61.4439C65.2599 61.5288 65.2316 61.6136 65.2033 61.6984C65.1751 61.7832 65.1185 61.8822 65.0478 61.9953C64.9771 62.0943 64.8923 62.1932 64.7651 62.2639C64.652 62.3488 64.4965 62.4053 64.3268 62.4619C64.1571 62.5184 63.9309 62.5326 63.6765 62.5326C63.422 62.5326 63.1392 62.5043 62.9413 62.4336C62.7434 62.3629 62.5737 62.2781 62.4465 62.1791C62.3192 62.0801 62.2203 61.967 62.1496 61.8398C62.0789 61.7126 62.0223 61.5995 61.9941 61.4863C61.9658 61.3732 61.9516 61.2743 61.9375 61.1895V61.0198H62.8565C62.8565 61.0764 62.8565 61.147 62.8847 61.2036C62.913 61.2601 62.9413 61.345 62.9978 61.4015C63.0544 61.4581 63.1392 61.5146 63.2382 61.557C63.3371 61.5995 63.4785 61.6277 63.6482 61.6277C63.8178 61.6277 63.8461 61.6277 63.9027 61.5853C63.9734 61.557 64.0158 61.5288 64.044 61.5005C64.0723 61.4722 64.1006 61.4298 64.1006 61.3874V61.2884C64.1006 61.147 64.044 61.0622 63.9168 61.0057C63.7896 60.9491 63.634 60.8926 63.4644 60.836C63.323 60.7936 63.1816 60.7512 63.012 60.6946C62.8565 60.6381 62.7009 60.5674 62.5737 60.4684C62.4323 60.3695 62.3334 60.2564 62.2344 60.115C62.1496 59.9736 62.1072 59.8039 62.1072 59.5919L62.1354 59.6767Z" fill="#F57F3B"/>
<path d="M69.9956 60.4967C69.9956 60.7936 69.9391 61.0622 69.8401 61.3167C69.7411 61.5712 69.5998 61.7974 69.416 61.9812C69.2322 62.165 69.0201 62.3205 68.7798 62.4336C68.5394 62.5467 68.2708 62.6032 67.988 62.6032C67.7053 62.6032 67.4367 62.5467 67.1963 62.4336C66.956 62.3205 66.7439 62.1791 66.5601 61.9812C66.3763 61.7974 66.2349 61.5712 66.136 61.3167C66.037 61.0622 65.9805 60.7936 65.9805 60.4967C65.9805 60.1998 66.037 59.9453 66.136 59.6908C66.2349 59.4364 66.3763 59.2102 66.5601 59.0264C66.7439 58.8284 66.956 58.6871 67.1963 58.574C67.4367 58.4609 67.7053 58.4043 67.988 58.4043C68.2708 58.4043 68.5394 58.4609 68.7798 58.574C69.0201 58.6871 69.2322 58.8284 69.416 59.0264C69.5998 59.2243 69.7411 59.4364 69.8401 59.6908C69.9391 59.9453 69.9956 60.2139 69.9956 60.4967ZM68.7656 60.5108C68.7656 60.3129 68.7373 60.1433 68.6949 60.0019C68.6525 59.8605 68.5818 59.7333 68.5111 59.6343C68.4405 59.5353 68.3556 59.4646 68.2567 59.4222C68.1577 59.3798 68.0729 59.3515 67.988 59.3515C67.9032 59.3515 67.8043 59.3798 67.7194 59.4222C67.6205 59.4646 67.5498 59.5495 67.4649 59.6484C67.3943 59.7474 67.3377 59.8746 67.2811 60.016C67.2387 60.1574 67.2105 60.327 67.2105 60.5108C67.2105 60.6946 67.2387 60.8643 67.2811 61.0057C67.3236 61.147 67.3801 61.2601 67.4649 61.3591C67.5356 61.4581 67.6205 61.5288 67.7194 61.5712C67.8184 61.6136 67.9032 61.6419 68.0022 61.6419C68.1011 61.6419 68.186 61.6136 68.2849 61.5712C68.3698 61.5288 68.4546 61.4581 68.5394 61.3591C68.6242 61.2601 68.6808 61.147 68.7232 61.0057C68.7656 60.8643 68.7939 60.7088 68.7939 60.5108H68.7656Z" fill="#F57F3B"/>
<path d="M76.1039 58.5459V59.4931H75.6232L74.7184 62.4762H73.6015L73.1915 60.6524L72.7815 62.4762H71.6646L70.4629 58.56H71.6929L72.2584 60.7938L72.7674 58.56H73.6156L74.1105 60.7938L74.676 58.56H76.1039V58.5459Z" fill="#F57F3B"/>
<path d="M76.627 60.5527C76.627 60.27 76.6835 59.9872 76.7825 59.7186C76.8814 59.45 77.0228 59.2238 77.1925 59.0259C77.3621 58.8279 77.56 58.6724 77.7721 58.5593C77.9842 58.4462 78.2104 58.3896 78.4507 58.3896C78.6911 58.3896 78.8042 58.4321 78.9738 58.5027C79.1435 58.5734 79.3131 58.6865 79.4687 58.8421V58.531H80.7128V61.5141H81.1935V62.4613H79.6949L79.5959 62.0796C79.4828 62.2351 79.3273 62.3624 79.1435 62.4472C78.9597 62.5462 78.7335 62.5886 78.4932 62.5886C78.2528 62.5886 77.9842 62.532 77.758 62.4189C77.5318 62.3058 77.348 62.1645 77.1783 61.9807C77.0087 61.7969 76.8814 61.5707 76.7966 61.3303C76.6976 61.0758 76.6552 60.8214 76.6552 60.5386H76.627V60.5527ZM77.8569 60.5103C77.8569 60.6658 77.8852 60.8072 77.9135 60.9486C77.9559 61.09 78.0125 61.2031 78.0832 61.3162C78.1538 61.4151 78.2528 61.5 78.3518 61.5565C78.4507 61.6131 78.5638 61.6414 78.6769 61.6414C78.889 61.6414 79.0869 61.5424 79.2283 61.3445C79.3838 61.1465 79.4545 60.8638 79.4545 60.5103C79.4545 60.1569 79.4262 60.171 79.398 60.0296C79.3556 59.8883 79.299 59.761 79.2283 59.6621C79.1576 59.5631 79.0728 59.4783 78.9738 59.4217C78.8749 59.3652 78.7759 59.3369 78.6628 59.3369C78.5497 59.3369 78.4366 59.3652 78.3376 59.4358C78.2387 59.5065 78.1538 59.5914 78.0832 59.6903C78.0125 59.8034 77.9418 59.9307 77.9135 60.0579C77.8711 60.1993 77.8428 60.3407 77.8428 60.4962L77.8569 60.5103Z" fill="#F57F3B"/>
<path d="M84.4591 60.0726C84.4591 59.5919 84.2894 59.3515 83.9643 59.3515C83.6391 59.3515 83.625 59.4222 83.5119 59.5495C83.3988 59.6767 83.3139 59.8464 83.2998 60.0443V62.4619H82.0557V58.5457H83.1726L83.215 58.8708C83.3563 58.7295 83.5119 58.6164 83.6957 58.5315C83.8795 58.4467 84.0632 58.4043 84.2753 58.4043C84.4874 58.4043 84.6429 58.4467 84.8125 58.5174C84.9822 58.5881 85.1236 58.7012 85.2508 58.8284C85.3781 58.9557 85.477 59.1112 85.5477 59.295C85.6184 59.4646 85.6608 59.6626 85.6608 59.8605V61.5146H86.1415V62.4619H84.4732V60.0726H84.4591Z" fill="#F57F3B"/>
<path d="M87.7388 58.5454L88.6436 60.9205L89.3081 58.5454H90.736V59.4926H90.2553L89.2515 62.8716C89.1384 63.2391 88.9688 63.5078 88.7284 63.6774C88.4881 63.8471 88.1912 63.9319 87.8519 63.9319H86.735L87.0178 62.9705H87.7529C87.8378 62.9705 87.9226 62.9281 87.9933 62.8433C88.064 62.7585 88.1205 62.6171 88.1629 62.4192L86.5088 58.5312H87.7529L87.7388 58.5454Z" fill="#F57F3B"/>
<path d="M93.7471 59.4788C93.6057 59.4222 93.4785 59.4081 93.3795 59.4081C93.2805 59.4081 93.125 59.4364 93.0261 59.4929C92.913 59.5495 92.8281 59.6343 92.7433 59.7333C92.6726 59.8322 92.6019 59.9453 92.5595 60.0867C92.5171 60.2281 92.503 60.3695 92.503 60.525C92.503 60.6805 92.5312 60.8219 92.5595 60.9632C92.5878 61.1046 92.6585 61.2319 92.7292 61.3308C92.7999 61.4298 92.8988 61.5146 92.9978 61.5712C93.0968 61.6277 93.2099 61.656 93.3371 61.656C93.4643 61.656 93.4785 61.656 93.5633 61.6277C93.6481 61.6277 93.733 61.5853 93.8178 61.557C93.9026 61.5288 93.9733 61.4863 94.0581 61.4439C94.1288 61.4015 94.1995 61.3591 94.2419 61.3167L94.8216 61.9105C94.6378 62.1226 94.4116 62.2922 94.1571 62.4195C93.8885 62.5467 93.6057 62.6032 93.2805 62.6032C92.9554 62.6032 92.7433 62.5608 92.503 62.4619C92.2626 62.3629 92.0506 62.2357 91.8668 62.0519C91.683 61.8822 91.5416 61.656 91.4426 61.4015C91.3295 61.147 91.2871 60.8501 91.2871 60.525C91.2871 60.1998 91.3437 59.9029 91.4426 59.6484C91.5416 59.3798 91.683 59.1677 91.8668 58.9839C92.0506 58.8002 92.2485 58.6588 92.4888 58.5598C92.7292 58.4608 92.9837 58.4043 93.2664 58.4043C93.5492 58.4043 93.9026 58.475 94.1712 58.6164C94.4398 58.7577 94.666 58.9415 94.8498 59.1677V59.8464H94.1571C94.0016 59.6626 93.8602 59.5495 93.7188 59.4929H93.7471V59.4788Z" fill="#F57F3B"/>
<path d="M95.6416 56.9194H96.8574V58.7149C96.9705 58.616 97.0978 58.5453 97.2391 58.4887C97.3805 58.4322 97.536 58.4039 97.7057 58.4039C97.8753 58.4039 98.0733 58.4463 98.2288 58.5028C98.3984 58.5735 98.5398 58.6725 98.6529 58.7856C98.7802 58.9128 98.8791 59.0542 98.9498 59.2097C99.0205 59.3794 99.0488 59.5491 99.0488 59.7328V61.5142H99.5295V62.4614H97.8329V59.9449C97.8329 59.7753 97.7905 59.6339 97.6915 59.5208C97.6067 59.4077 97.4936 59.3511 97.3522 59.3511C97.2109 59.3511 97.0978 59.4077 96.9847 59.5349C96.8857 59.6622 96.8291 59.8177 96.8291 59.9873V62.4473H95.6133V56.9053H95.6416V56.9194Z" fill="#F57F3B"/>
<path d="M108.125 58.5459V59.4931H107.645L106.74 62.4762H105.623L105.213 60.6524L104.803 62.4762H103.686L102.484 58.56H103.714L104.28 60.7938L104.789 58.56H105.637L106.132 60.7938L106.697 58.56H108.125V58.5459Z" fill="#F57F3B"/>
<path d="M113.399 60.5958L114.162 56.9199H114.728L115.59 60.624L116.679 56.9199H117.937L116.198 62.462H115.053L114.488 59.7616L113.993 62.462H112.819L111.391 57.9237H110.896V56.9199H112.324L113.399 60.5958Z" fill="#F57F3B"/>
<path d="M118.276 60.5527C118.276 60.27 118.333 59.9872 118.432 59.7186C118.531 59.45 118.672 59.2238 118.842 59.0259C119.012 58.8279 119.209 58.6724 119.422 58.5593C119.634 58.4462 119.86 58.3896 120.1 58.3896C120.34 58.3896 120.454 58.4321 120.623 58.5027C120.793 58.5734 120.963 58.6865 121.118 58.8421V58.531H122.362V61.5141H122.843V62.4613H121.344L121.245 62.0796C121.132 62.2351 120.977 62.3624 120.793 62.4472C120.609 62.5462 120.383 62.5886 120.143 62.5886C119.902 62.5886 119.634 62.532 119.407 62.4189C119.181 62.3058 118.997 62.1645 118.828 61.9807C118.658 61.7969 118.531 61.5707 118.446 61.3303C118.347 61.0758 118.305 60.8214 118.305 60.5386H118.276V60.5527ZM119.506 60.5103C119.506 60.6658 119.535 60.8072 119.563 60.9486C119.605 61.09 119.662 61.2031 119.733 61.3162C119.803 61.4151 119.902 61.5 120.001 61.5565C120.1 61.6131 120.213 61.6414 120.326 61.6414C120.538 61.6414 120.736 61.5424 120.878 61.3445C121.033 61.1465 121.104 60.8638 121.104 60.5103C121.104 60.1569 121.076 60.171 121.047 60.0296C121.005 59.8883 120.948 59.761 120.878 59.6621C120.807 59.5631 120.722 59.4783 120.623 59.4217C120.524 59.3652 120.425 59.3369 120.312 59.3369C120.199 59.3369 120.086 59.3652 119.987 59.4358C119.888 59.5065 119.803 59.5914 119.733 59.6903C119.662 59.8034 119.591 59.9307 119.563 60.0579C119.52 60.1993 119.492 60.3407 119.492 60.4962L119.506 60.5103Z" fill="#F57F3B"/>
<path d="M123.381 58.5457H124.964L125.007 58.885C125.148 58.7295 125.318 58.6164 125.516 58.5315C125.714 58.4467 125.926 58.4043 126.152 58.4043V59.5353C126.01 59.5353 125.883 59.5353 125.742 59.5919C125.615 59.6343 125.501 59.6908 125.403 59.7757C125.304 59.8605 125.233 59.9736 125.162 60.1008C125.106 60.2422 125.077 60.4119 125.077 60.6239V62.476H123.833V59.4929H123.353V58.5598H123.381V58.5457Z" fill="#F57F3B"/>
<path d="M126.858 59.6767C126.858 59.507 126.886 59.3374 126.957 59.196C127.028 59.0405 127.113 58.9133 127.24 58.786C127.367 58.6729 127.523 58.574 127.72 58.5033C127.918 58.4326 128.13 58.4043 128.371 58.4043C128.611 58.4043 128.852 58.4467 129.035 58.5174C129.219 58.5881 129.389 58.6871 129.516 58.8143C129.643 58.9415 129.742 59.097 129.799 59.2667C129.855 59.4364 129.898 59.6343 129.898 59.8322H129.007C129.007 59.7191 128.965 59.6201 128.922 59.5495C128.88 59.4788 128.837 59.4222 128.781 59.3798C128.724 59.3374 128.654 59.3091 128.583 59.295C128.512 59.2808 128.442 59.2667 128.371 59.2667C128.229 59.2667 128.13 59.295 128.074 59.3657C128.017 59.4364 128.003 59.507 128.003 59.5777C128.003 59.7191 128.074 59.8181 128.187 59.8746C128.3 59.9312 128.47 59.9877 128.639 60.0443C128.781 60.0867 128.936 60.1291 129.092 60.1857C129.247 60.2422 129.403 60.3129 129.53 60.4119C129.657 60.5108 129.77 60.6239 129.855 60.7512C129.94 60.8926 129.983 61.0622 129.983 61.2601C129.983 61.4581 129.983 61.3591 129.983 61.4439C129.983 61.5288 129.954 61.6136 129.926 61.6984C129.898 61.7974 129.841 61.8822 129.77 61.9953C129.7 62.0943 129.615 62.1932 129.488 62.2639C129.375 62.3488 129.219 62.4053 129.049 62.4619C128.88 62.5184 128.654 62.5326 128.399 62.5326C128.145 62.5326 127.862 62.5043 127.664 62.4336C127.466 62.3629 127.296 62.2781 127.169 62.1791C127.042 62.0801 126.943 61.967 126.872 61.8398C126.802 61.7126 126.745 61.5995 126.717 61.4863C126.688 61.3732 126.674 61.2743 126.66 61.1895V61.0198H127.579C127.579 61.0764 127.579 61.147 127.607 61.2036C127.636 61.2743 127.664 61.345 127.72 61.4015C127.777 61.4581 127.862 61.5146 127.961 61.557C128.06 61.5995 128.201 61.6277 128.371 61.6277C128.54 61.6277 128.569 61.6277 128.625 61.5853C128.696 61.557 128.738 61.5288 128.767 61.5005C128.795 61.4581 128.823 61.4298 128.823 61.3874V61.2884C128.823 61.147 128.767 61.0622 128.639 61.0057C128.512 60.9491 128.357 60.8926 128.187 60.836C128.046 60.7936 127.904 60.7512 127.735 60.6946C127.579 60.6381 127.424 60.5674 127.296 60.4684C127.155 60.3695 127.042 60.2564 126.957 60.115C126.872 59.9736 126.83 59.8039 126.83 59.5919L126.858 59.6767Z" fill="#F57F3B"/>
<path d="M133.871 61.0195V62.4616H130.478L132.315 59.4926H130.675V58.5312H133.998L132.174 61.5002H132.938V61.0195H133.871Z" fill="#F57F3B"/>
<path d="M134.592 60.5527C134.592 60.27 134.648 59.9872 134.747 59.7186C134.846 59.45 134.988 59.2238 135.157 59.0259C135.327 58.8279 135.525 58.6724 135.737 58.5593C135.949 58.4462 136.175 58.3896 136.416 58.3896C136.656 58.3896 136.769 58.4321 136.939 58.5027C137.108 58.5734 137.278 58.6865 137.434 58.8421V58.531H138.678V61.5141H139.158V62.4613H137.66L137.561 62.0796C137.448 62.2351 137.292 62.3624 137.108 62.4472C136.925 62.5462 136.698 62.5886 136.458 62.5886C136.218 62.5886 135.949 62.532 135.723 62.4189C135.497 62.3058 135.313 62.1645 135.143 61.9807C134.974 61.7969 134.846 61.5707 134.761 61.3303C134.662 61.0758 134.62 60.8214 134.62 60.5386H134.592V60.5527ZM135.808 60.5103C135.808 60.6658 135.836 60.8072 135.864 60.9486C135.907 61.09 135.963 61.2031 136.034 61.3162C136.105 61.4151 136.204 61.5 136.302 61.5565C136.401 61.6131 136.515 61.6414 136.628 61.6414C136.84 61.6414 137.038 61.5424 137.179 61.3445C137.335 61.1465 137.405 60.8638 137.405 60.5103C137.405 60.1569 137.377 60.171 137.349 60.0296C137.32 59.8883 137.25 59.761 137.179 59.6621C137.108 59.5631 137.024 59.4783 136.925 59.4217C136.826 59.3652 136.727 59.3369 136.614 59.3369C136.5 59.3369 136.387 59.3652 136.288 59.4358C136.189 59.5065 136.105 59.5914 136.034 59.6903C135.963 59.8034 135.892 59.9307 135.864 60.0579C135.822 60.1993 135.794 60.3407 135.794 60.4962L135.808 60.5103Z" fill="#F57F3B"/>
<path d="M145.153 58.5459V59.4931H144.672L143.767 62.4762H142.65L142.24 60.6524L141.83 62.4762H140.713L139.512 58.56H140.742L141.307 60.7938L141.816 58.56H142.664L143.159 60.7938L143.725 58.56H145.153V58.5459Z" fill="#F57F3B"/>
<path d="M145.775 58.5458H147.471V62.462H146.241V59.4789H145.761V58.5316L145.775 58.5458ZM146.241 56.9199H147.471V58.051H146.241V56.9199Z" fill="#F57F3B"/>
<path d="M151.982 61.8393C151.755 62.0938 151.501 62.2776 151.232 62.4048C150.95 62.5321 150.667 62.5886 150.37 62.5886C150.073 62.5886 149.875 62.5462 149.649 62.4473C149.409 62.3624 149.211 62.2211 149.027 62.0514C148.843 61.8817 148.702 61.6555 148.589 61.4011C148.475 61.1466 148.419 60.8497 148.419 60.5104C148.419 60.1711 148.475 59.9024 148.574 59.648C148.673 59.3935 148.815 59.1673 148.984 58.9835C149.154 58.7997 149.352 58.6583 149.592 58.5593C149.819 58.4604 150.073 58.418 150.328 58.418C150.582 58.418 150.851 58.4745 151.091 58.5876C151.331 58.7007 151.529 58.8421 151.699 59.0259C151.869 59.2097 152.01 59.4359 152.109 59.6762C152.208 59.9166 152.25 60.1852 152.25 60.468C152.25 60.7507 152.25 60.6518 152.25 60.7366C152.25 60.8214 152.222 60.9062 152.208 60.9911H149.691C149.748 61.2314 149.847 61.3869 149.988 61.4859C150.13 61.5849 150.299 61.6414 150.483 61.6414C150.667 61.6414 150.78 61.6131 150.921 61.5566C151.077 61.5 151.204 61.4152 151.331 61.3021L151.996 61.8535L151.982 61.8393ZM151.02 60.2276C151.02 60.1004 150.992 59.9873 150.95 59.8883C150.907 59.7752 150.851 59.6904 150.794 59.6056C150.723 59.5349 150.653 59.4642 150.568 59.4218C150.483 59.3793 150.398 59.3511 150.299 59.3511C150.2 59.3511 150.115 59.3793 150.031 59.4218C149.946 59.4642 149.875 59.5207 149.804 59.6056C149.734 59.6762 149.691 59.7752 149.649 59.8883C149.607 60.0014 149.592 60.1145 149.592 60.2276H151.02Z" fill="#F57F3B"/>
<path d="M17.2906 26.4095L16.3575 27.3285L14.0813 25.4764L16.3009 26.763L19.5809 22.8892L16.6968 14.0106L13.021 10.8862L12.2575 10.1934V9.18961L13.841 8.49685L14.2227 5.9379L11.4517 3.87377L12.7241 3.91619L12.4272 2.60137C12.7806 2.33275 13.0068 1.90861 13.0068 1.42792C13.0068 0.636204 12.3989 0 11.6496 0C10.9003 0 10.561 0.381723 10.3772 0.9331H6.81444C6.51755 0.607929 6.09341 0.409999 5.62686 0.409999C4.72204 0.409999 3.98687 1.17344 3.98687 2.12068C3.98687 3.06792 4.12825 2.9124 4.35446 3.2093L3.44964 5.3017V10.872L0.367581 14.8306L0 23.5678L5.31583 29.1805L6.51755 29.5764L8.36961 28.0212L6.71548 30.0854L5.0048 29.8167L2.0924 26.8619L1.28654 32.2909L0.848271 35.6698L2.33275 48.1818L1.62585 49.5391V50.9811H7.37996V49.5815L6.40445 48.3373L12.0596 38.1298L12.6534 35.6274L12.5403 38.1439L10.3772 42.8943L10.8861 50.9811H19.0295V49.5108L16.6685 47.9556L18.6196 37.027L17.2765 26.4237L17.2906 26.4095Z" fill="#F57F3B"/>
<path d="M31.7676 37.3099H29.8024L29.3782 35.7972H27.0172L26.5931 37.3099H24.6279L26.7769 30.4107H26.0276V28.8838H29.1379L31.7534 37.2958H31.7676V37.3099ZM28.8976 34.1713L28.2048 31.471L27.5262 34.1713H28.9117H28.8976Z" fill="#F57F3B"/>
<path d="M32.7148 28.8975H35.3021V33.2802L37.1683 31.3716H39.0769L36.8148 33.7043L39.1758 37.3236H37.3238L35.7686 34.8071L35.3021 35.3019V37.3236H33.4359V30.3395H32.7148V28.8975Z" fill="#F57F3B"/>
<path d="M39.7129 34.426C39.7129 33.9877 39.7836 33.5636 39.9391 33.1677C40.0946 32.7719 40.2925 32.4184 40.547 32.1215C40.8015 31.8246 41.0984 31.5843 41.4236 31.4146C41.7487 31.245 42.1022 31.1602 42.4556 31.1602C42.8091 31.1602 42.9929 31.2167 43.2474 31.3298C43.5018 31.4429 43.7705 31.6126 44.0108 31.8529V31.3864H45.8911V35.9105H46.6122V37.3384H44.336L44.1805 36.7587C43.9967 36.9991 43.7705 37.1829 43.4877 37.3243C43.2049 37.4656 42.8798 37.5363 42.498 37.5363C42.1163 37.5363 41.7205 37.4515 41.3953 37.2819C41.056 37.1122 40.7591 36.886 40.5188 36.6032C40.2643 36.3205 40.0805 35.9953 39.9391 35.6136C39.7977 35.246 39.727 34.8501 39.727 34.426H39.7129ZM41.565 34.3695C41.565 34.6098 41.5932 34.8219 41.6639 35.0339C41.7205 35.246 41.8194 35.4298 41.9325 35.5853C42.0456 35.7408 42.187 35.8681 42.3284 35.9529C42.4839 36.0377 42.6536 36.0943 42.8232 36.0943C43.1484 36.0943 43.4311 35.9388 43.6715 35.6419C43.8977 35.345 44.0249 34.9208 44.0249 34.3836C44.0249 33.8464 43.9967 33.8746 43.926 33.6626C43.8553 33.4505 43.7705 33.2526 43.6715 33.097C43.5725 32.9415 43.4312 32.8143 43.2898 32.7295C43.1484 32.6446 42.9929 32.6022 42.8232 32.6022C42.6536 32.6022 42.4839 32.6446 42.3284 32.7436C42.1729 32.8426 42.0456 32.9698 41.9325 33.1395C41.8194 33.3091 41.7346 33.4929 41.6639 33.705C41.6074 33.917 41.565 34.1432 41.565 34.3695Z" fill="#F57F3B"/>
<path d="M51.7309 36.7728C51.5047 37.0131 51.2643 37.1969 50.9816 37.3241C50.6988 37.4514 50.4019 37.5221 50.105 37.5221C49.8081 37.5221 49.4264 37.4372 49.1295 37.2676C48.8326 37.0979 48.5781 36.8717 48.3519 36.589C48.1399 36.3062 47.9702 35.9669 47.843 35.5852C47.7157 35.2035 47.6592 34.7935 47.6592 34.3552C47.6592 33.9169 47.7299 33.4504 47.8712 33.0545C48.0126 32.6586 48.2106 32.3193 48.4509 32.0507C48.6912 31.768 48.9599 31.5559 49.2709 31.4004C49.5819 31.2449 49.9071 31.16 50.2464 31.16C50.5857 31.16 50.7554 31.2024 50.9957 31.3014C51.2219 31.3862 51.434 31.5135 51.6036 31.669V28.9121H53.484V35.8962H54.205V37.3241H51.8016L51.7309 36.7869V36.7728ZM49.483 34.3693C49.483 34.6238 49.5112 34.85 49.5537 35.0762C49.6102 35.3024 49.6809 35.4862 49.7657 35.6559C49.8506 35.8114 49.9637 35.9386 50.0909 36.0376C50.2181 36.1366 50.3454 36.179 50.4868 36.179C50.6281 36.179 50.7695 36.1366 50.8968 36.0376C51.0381 35.9528 51.1512 35.8114 51.2502 35.6417C51.3492 35.4721 51.434 35.2741 51.5047 35.0338C51.5612 34.8076 51.6036 34.539 51.6036 34.2562C51.6036 33.9735 51.5754 33.7897 51.533 33.5776C51.4764 33.3655 51.4057 33.1817 51.3209 33.0262C51.2361 32.8707 51.1371 32.7576 51.0099 32.6728C50.8826 32.588 50.7554 32.5455 50.5999 32.5455C50.4443 32.5455 50.3171 32.588 50.1899 32.6728C50.0485 32.7576 49.9354 32.8848 49.8364 33.0404C49.7374 33.1959 49.6526 33.3938 49.5819 33.62C49.5112 33.8462 49.483 34.1007 49.483 34.3835V34.3693Z" fill="#F57F3B"/>
<path d="M60.5666 36.3771C60.2273 36.7588 59.8456 37.0415 59.4215 37.2395C58.9973 37.4374 58.5591 37.5222 58.1066 37.5222C57.6542 37.5222 57.3573 37.4515 57.0039 37.3102C56.6504 37.1688 56.3394 36.9709 56.0567 36.7022C55.7739 36.4336 55.5618 36.1085 55.3922 35.7126C55.2225 35.3167 55.1377 34.8643 55.1377 34.3695C55.1377 33.8747 55.2084 33.4505 55.3639 33.0547C55.5194 32.6588 55.7173 32.3195 55.986 32.0509C56.2404 31.7681 56.5515 31.5561 56.9049 31.4147C57.2584 31.2592 57.626 31.1885 58.0218 31.1885C58.4177 31.1885 58.8277 31.2733 59.1811 31.443C59.5346 31.6126 59.8456 31.8388 60.1001 32.1216C60.3546 32.4043 60.5666 32.7295 60.708 33.1112C60.8494 33.4929 60.9342 33.8888 60.9342 34.3129C60.9342 34.7371 60.9342 34.5957 60.9059 34.7229C60.9059 34.8502 60.8635 34.9916 60.8494 35.1188H57.0322C57.117 35.4722 57.2584 35.7267 57.4846 35.8822C57.7108 36.0378 57.9511 36.1084 58.2339 36.1084C58.5166 36.1084 58.6722 36.066 58.9125 35.9671C59.1387 35.8822 59.3508 35.7409 59.5346 35.5712L60.5525 36.3912L60.5666 36.3771ZM59.1246 33.9454C59.1246 33.7616 59.0822 33.5778 59.0115 33.4223C58.9549 33.2667 58.8701 33.1254 58.7711 32.9981C58.6722 32.885 58.5591 32.7861 58.4318 32.7154C58.3046 32.6447 58.1773 32.6164 58.036 32.6164C57.8946 32.6164 57.7532 32.6447 57.6401 32.7154C57.5129 32.7861 57.3998 32.8709 57.3008 32.9981C57.2018 33.1112 57.1311 33.2526 57.0746 33.4223C57.018 33.5778 56.9898 33.7616 56.9898 33.9454H59.1246Z" fill="#F57F3B"/>
<path d="M67.9462 37.3101H66.08V33.6908C66.08 33.3091 66.0093 33.0404 65.8538 32.8567C65.6983 32.6729 65.5004 32.588 65.2459 32.588C64.9914 32.588 64.949 32.6163 64.8217 32.687C64.6945 32.7577 64.5814 32.8425 64.4824 32.9556C64.3835 33.0687 64.3128 33.196 64.2704 33.3515C64.2138 33.507 64.1997 33.6625 64.1997 33.8322V37.2959H62.3193V31.3439H64.0017L64.0583 31.867C64.2704 31.6408 64.5248 31.457 64.8076 31.3298C65.1045 31.2025 65.4155 31.1318 65.7407 31.1318C66.0659 31.1318 66.5041 31.2308 66.8152 31.4146C67.1403 31.5984 67.3948 31.8387 67.5786 32.1356C67.7907 31.8387 68.0593 31.5984 68.3986 31.4146C68.7379 31.2308 69.0914 31.1318 69.4872 31.1318C69.8831 31.1318 70.081 31.1884 70.3496 31.3015C70.6183 31.4146 70.8445 31.5842 71.0565 31.7822C71.2686 31.9801 71.41 32.2205 71.5231 32.4891C71.6362 32.7577 71.6927 33.0404 71.6927 33.3515V35.868H72.4138V37.2959H69.8265V33.6908C69.8265 33.3373 69.7558 33.0687 69.6003 32.8708C69.4448 32.6729 69.2469 32.588 68.9924 32.588C68.7379 32.588 68.7096 32.6163 68.5683 32.687C68.4269 32.7577 68.3279 32.8425 68.229 32.9556C68.13 33.0687 68.0593 33.196 68.0169 33.3515C67.9603 33.507 67.9462 33.6625 67.9462 33.8322V37.3101Z" fill="#F57F3B"/>
<path d="M73.248 31.3575H75.8353V37.3095H73.9691V32.7854H73.248V31.3575ZM73.9691 28.8975H75.8353V30.6081H73.9691V28.8975Z" fill="#F57F3B"/>
<path d="M77.2207 34.426C77.2207 33.9877 77.2914 33.5636 77.4469 33.1677C77.6024 32.7719 77.8003 32.4184 78.0548 32.1215C78.3093 31.8246 78.6062 31.5843 78.9314 31.4146C79.2566 31.245 79.61 31.1602 79.9634 31.1602C80.3169 31.1602 80.5007 31.2167 80.7552 31.3298C81.0238 31.4429 81.2783 31.6126 81.5186 31.8529V31.3864H83.3989V35.9105H84.12V37.3384H81.8438L81.6883 36.7587C81.5045 36.9991 81.2783 37.1829 80.9955 37.3243C80.7127 37.4656 80.3876 37.5363 80.0059 37.5363C79.6241 37.5363 79.2283 37.4515 78.9031 37.2819C78.5638 37.1122 78.2669 36.886 78.0266 36.6032C77.7862 36.3205 77.5883 35.9953 77.4469 35.6136C77.3055 35.246 77.2348 34.8501 77.2348 34.426H77.2207ZM79.0728 34.3695C79.0728 34.6098 79.101 34.8219 79.1717 35.0339C79.2283 35.246 79.3272 35.4298 79.4403 35.5853C79.5534 35.7408 79.6948 35.8681 79.8362 35.9529C79.9917 36.0377 80.1614 36.0943 80.331 36.0943C80.6562 36.0943 80.939 35.9388 81.1793 35.6419C81.4055 35.345 81.5327 34.9208 81.5327 34.3836C81.5327 33.8464 81.5045 33.8746 81.4338 33.6626C81.3631 33.4505 81.2783 33.2526 81.1793 33.097C81.0803 32.9415 80.939 32.8143 80.7976 32.7295C80.6562 32.6446 80.5007 32.6022 80.331 32.6022C80.1614 32.6022 79.9917 32.6446 79.8362 32.7436C79.6807 32.8426 79.5534 32.9698 79.4403 33.1395C79.3272 33.3091 79.2424 33.4929 79.1717 33.705C79.1152 33.917 79.0728 34.1432 79.0728 34.3695Z" fill="#F57F3B"/>
<path d="M31.301 42.498V44.8732H29.8165V44.1239H28.9541V50.9101H26.989V44.1239H26.1124V44.8732H24.6279V42.498H31.301Z" fill="#F57F3B"/>
<path d="M36.7297 49.963C36.3904 50.3447 36.0087 50.6275 35.5846 50.8254C35.1604 51.0234 34.7221 51.1082 34.2697 51.1082C33.8173 51.1082 33.5204 51.0375 33.167 50.8961C32.8135 50.7547 32.5025 50.5568 32.2197 50.2882C31.937 50.0196 31.7249 49.6944 31.5553 49.2985C31.3856 48.9027 31.3008 48.4503 31.3008 47.9554C31.3008 47.4606 31.3715 47.0365 31.527 46.6406C31.6825 46.2448 31.8804 45.9054 32.1491 45.6368C32.4035 45.3541 32.7146 45.142 33.068 45.0006C33.4215 44.8451 33.789 44.7744 34.1849 44.7744C34.5808 44.7744 34.9908 44.8592 35.3442 45.0289C35.6977 45.1986 36.0087 45.4248 36.2632 45.7075C36.5177 45.9903 36.7297 46.3154 36.8711 46.6972C37.0125 47.0789 37.0973 47.4748 37.0973 47.8989C37.0973 48.323 37.0973 48.1816 37.069 48.3089C37.0408 48.4361 37.0266 48.5775 37.0125 48.7047H33.1953C33.2801 49.0582 33.4215 49.3127 33.6477 49.4682C33.8739 49.6237 34.1142 49.6944 34.397 49.6944C34.6797 49.6944 34.8352 49.652 35.0756 49.553C35.3018 49.4682 35.5139 49.3268 35.6977 49.1572L36.7156 49.9772L36.7297 49.963ZM35.2877 47.5313C35.2877 47.3475 35.2452 47.1637 35.1746 47.0082C35.118 46.8527 35.0332 46.7113 34.9342 46.5841C34.8352 46.471 34.7221 46.372 34.5949 46.3013C34.4677 46.2306 34.3404 46.2023 34.199 46.2023C34.0577 46.2023 33.9163 46.2306 33.8032 46.3013C33.6759 46.372 33.5628 46.4568 33.4639 46.5841C33.3649 46.7113 33.2942 46.8385 33.2377 47.0082C33.1811 47.1637 33.1528 47.3475 33.1528 47.5313H35.2877Z" fill="#F57F3B"/>
<path d="M41.8482 46.3719C41.622 46.2871 41.4382 46.2588 41.2968 46.2588C41.1554 46.2588 40.9151 46.3013 40.7596 46.3861C40.6041 46.4709 40.4627 46.584 40.3354 46.7395C40.2223 46.895 40.1234 47.0647 40.0668 47.2768C40.0103 47.4747 39.9679 47.7009 39.9679 47.9412C39.9679 48.1816 39.9961 48.4078 40.0668 48.6199C40.1234 48.8319 40.2223 49.0157 40.3354 49.1712C40.4485 49.3268 40.5899 49.454 40.7454 49.5388C40.901 49.6236 41.0706 49.6802 41.2685 49.6802C41.4665 49.6802 41.4806 49.6802 41.622 49.6378C41.7492 49.6095 41.8765 49.5671 42.0037 49.5247C42.1309 49.4823 42.244 49.4257 42.3571 49.355C42.4703 49.2985 42.5692 49.2278 42.6399 49.1571L43.5306 50.0619C43.2478 50.3871 42.9227 50.6557 42.5127 50.8395C42.1027 51.0233 41.6644 51.1223 41.1837 51.1223C40.703 51.1223 40.3779 51.0516 40.0103 50.9102C39.6427 50.7688 39.3175 50.5709 39.0489 50.3023C38.7661 50.0337 38.5541 49.7085 38.3985 49.3126C38.243 48.9168 38.1582 48.4785 38.1582 47.9837C38.1582 47.4888 38.243 47.0364 38.3985 46.6406C38.5541 46.2447 38.7661 45.9054 39.0348 45.6226C39.3034 45.3399 39.6285 45.1278 39.9961 44.9723C40.3637 44.8168 40.7596 44.7461 41.1696 44.7461C41.5796 44.7461 42.1309 44.8451 42.5409 45.0571C42.9509 45.2692 43.3044 45.5378 43.573 45.8913V46.9233H42.5268C42.3006 46.6406 42.0885 46.4709 41.8623 46.3861L41.8482 46.3719Z" fill="#F57F3B"/>
<path d="M44.7319 42.4985H46.5698V45.213C46.7395 45.0716 46.9374 44.9585 47.1636 44.8737C47.3898 44.7888 47.616 44.7464 47.8705 44.7464C48.125 44.7464 48.4219 44.803 48.6622 44.9019C48.9167 45.0151 49.1288 45.1564 49.3126 45.3402C49.4964 45.524 49.6519 45.7361 49.7508 45.9906C49.8498 46.245 49.9064 46.4995 49.9064 46.7823V49.4826H50.6274V50.9105H48.0543V47.0933C48.0543 46.8388 47.9836 46.6268 47.8422 46.4571C47.7009 46.2875 47.5312 46.2026 47.3333 46.2026C47.1353 46.2026 46.9374 46.3016 46.7819 46.4854C46.6264 46.6692 46.5557 46.9095 46.5557 47.1781V50.9105H44.7178V42.4844H44.7319V42.4985Z" fill="#F57F3B"/>
<path d="M55.6041 47.2768C55.6041 46.5557 55.3497 46.1881 54.8548 46.1881C54.36 46.1881 54.3459 46.2871 54.1762 46.485C53.9924 46.683 53.8793 46.9233 53.851 47.2344V50.9102H51.9707V44.9582H53.6531L53.7097 45.453C53.9076 45.2409 54.1479 45.0713 54.4307 44.944C54.7135 44.8168 54.9962 44.7461 55.3072 44.7461C55.6183 44.7461 55.8728 44.8026 56.1272 44.9157C56.3817 45.0288 56.6079 45.1985 56.8059 45.3964C57.0038 45.5944 57.1452 45.8347 57.2583 46.1033C57.3714 46.3719 57.4279 46.6547 57.4279 46.9657V49.4823H58.1489V50.9102H55.6183V47.2909L55.6041 47.2768Z" fill="#F57F3B"/>
<path d="M58.9688 44.958H61.556V50.9101H59.6898V46.386H58.9688V44.958ZM59.6898 42.498H61.556V44.2087H59.6898V42.498Z" fill="#F57F3B"/>
<path d="M66.5747 46.3719C66.3485 46.2871 66.1647 46.2588 66.0234 46.2588C65.882 46.2588 65.6417 46.3013 65.4861 46.3861C65.3306 46.4709 65.1892 46.584 65.062 46.7395C64.9348 46.895 64.8499 47.0647 64.7934 47.2768C64.7368 47.4747 64.6944 47.7009 64.6944 47.9412C64.6944 48.1816 64.7227 48.4078 64.7934 48.6199C64.8499 48.8319 64.9489 49.0157 65.062 49.1712C65.1751 49.3268 65.3165 49.454 65.472 49.5388C65.6275 49.6236 65.7972 49.6802 65.9951 49.6802C66.193 49.6802 66.2072 49.6802 66.3485 49.6378C66.4758 49.6095 66.603 49.5671 66.7303 49.5247C66.8575 49.4823 66.9706 49.4257 67.0837 49.355C67.1968 49.2985 67.2958 49.2278 67.3665 49.1571L68.2572 50.0619C67.9744 50.3871 67.6492 50.6557 67.2392 50.8395C66.8434 51.0233 66.391 51.1223 65.9103 51.1223C65.4296 51.1223 65.1044 51.0516 64.7368 50.9102C64.3692 50.7688 64.0441 50.5709 63.7754 50.3023C63.4927 50.0337 63.2806 49.7085 63.1251 49.3126C62.9696 48.9168 62.8848 48.4785 62.8848 47.9837C62.8848 47.4888 62.9696 47.0364 63.1251 46.6406C63.2806 46.2447 63.4927 45.9054 63.7613 45.6226C64.0299 45.3399 64.3551 45.1278 64.7227 44.9723C65.0903 44.8168 65.4861 44.7461 65.8961 44.7461C66.3061 44.7461 66.8575 44.8451 67.2675 45.0571C67.6775 45.2692 68.0309 45.5378 68.2996 45.8913V46.9233H67.2534C67.0272 46.6406 66.8151 46.4709 66.5889 46.3861L66.5747 46.3719Z" fill="#F57F3B"/>
<path d="M74.068 48.705V50.8964H68.9219L71.707 46.4005H69.2188V44.9443H74.266L71.495 49.4402H72.6543V48.705H74.068Z" fill="#F57F3B"/>
<path d="M79.1012 47.2768C79.1012 46.5557 78.8467 46.1881 78.3519 46.1881C77.8571 46.1881 77.8429 46.2871 77.6733 46.485C77.4895 46.683 77.3764 46.9233 77.3481 47.2344V50.9102H75.4678V44.9582H77.1502L77.2067 45.453C77.4047 45.2409 77.645 45.0713 77.9278 44.944C78.2105 44.8168 78.4933 44.7461 78.8043 44.7461C79.1153 44.7461 79.3698 44.8026 79.6243 44.9157C79.8788 45.0288 80.105 45.1985 80.3029 45.3964C80.5009 45.5944 80.6422 45.8347 80.7553 46.1033C80.8684 46.3719 80.925 46.6547 80.925 46.9657V49.4823H81.646V50.9102H79.1153V47.2909L79.1012 47.2768Z" fill="#F57F3B"/>
<path d="M88.7429 47.9271C88.7429 48.3654 88.6722 48.7754 88.5167 49.1712C88.3611 49.5671 88.1491 49.8923 87.8805 50.175C87.6118 50.4578 87.2867 50.684 86.9191 50.8536C86.5515 51.0233 86.1415 51.1081 85.7174 51.1081C85.2932 51.1081 84.8832 51.0233 84.5015 50.8536C84.1339 50.684 83.8088 50.4578 83.5401 50.175C83.2715 49.8923 83.0595 49.553 82.9039 49.1712C82.7484 48.7895 82.6777 48.3795 82.6777 47.9271C82.6777 47.4747 82.7484 47.0788 82.9039 46.6971C83.0595 46.3154 83.2715 45.9761 83.5401 45.6792C83.8088 45.3823 84.1339 45.1561 84.5015 45.0006C84.8691 44.8451 85.2791 44.7461 85.7174 44.7461C86.1556 44.7461 86.5515 44.8309 86.9191 45.0006C87.2867 45.1702 87.6118 45.3964 87.8805 45.6792C88.1491 45.9761 88.3611 46.3013 88.5167 46.6971C88.6722 47.0788 88.7429 47.4888 88.7429 47.9271ZM86.8767 47.9554C86.8767 47.6585 86.8343 47.404 86.7636 47.1919C86.6929 46.9657 86.5939 46.7819 86.4808 46.6406C86.3677 46.4992 86.2405 46.3861 86.0991 46.3154C85.9577 46.2447 85.8163 46.2023 85.6891 46.2023C85.5619 46.2023 85.4205 46.2447 85.2791 46.3154C85.1377 46.3861 85.0105 46.4992 84.8974 46.6547C84.7843 46.8102 84.6994 46.994 84.6288 47.2061C84.5581 47.4323 84.5157 47.6726 84.5157 47.9554C84.5157 48.2381 84.5439 48.4926 84.6146 48.7047C84.6853 48.9168 84.7701 49.1006 84.8832 49.2419C84.9963 49.3833 85.1236 49.4964 85.265 49.5671C85.4063 49.6378 85.5477 49.6802 85.6891 49.6802C85.8305 49.6802 85.9719 49.6378 86.1132 49.5671C86.2546 49.4964 86.3819 49.3833 86.495 49.2419C86.6081 49.1006 86.6929 48.9168 86.7636 48.7047C86.8343 48.4926 86.8625 48.2381 86.8625 47.9554H86.8767Z" fill="#F57F3B"/>
<path d="M94.158 47.2061H89.9873V48.634H94.158V47.2061Z" fill="#F57F3B"/>
<path d="M102.23 50.9242H100.265L99.8411 49.4115H97.4801L97.056 50.9242H95.0908L97.2398 44.0249H96.4905V42.498H99.6008L102.216 50.9101H102.23V50.9242ZM99.3605 47.7856L98.6677 45.0853L97.9891 47.7856H99.3746H99.3605Z" fill="#F57F3B"/>
<path d="M103.276 44.9728H105.68L105.736 45.4818C105.963 45.2556 106.217 45.0718 106.514 44.9445C106.811 44.8173 107.136 44.7607 107.489 44.7607V46.4714C107.277 46.4714 107.065 46.4997 106.882 46.5563C106.684 46.6128 106.514 46.6976 106.373 46.8249C106.231 46.9521 106.104 47.1218 106.019 47.3197C105.934 47.5318 105.878 47.7862 105.878 48.1114V50.9248H103.997V46.4007H103.276V44.9728Z" fill="#F57F3B"/>
<path d="M108.536 44.9586H109.285V43.1914H111.152V44.9586H112.622V46.2452H111.152V49.0586C111.152 49.2141 111.152 49.3272 111.194 49.3838C111.236 49.4403 111.293 49.4686 111.406 49.4686H112.622V50.9248H110.94C110.416 50.9248 110.006 50.7976 109.71 50.529C109.413 50.2745 109.271 49.8503 109.271 49.2848V46.2452H108.536V44.9586Z" fill="#F57F3B"/>
<path d="M115.167 44.9727L116.538 48.5919L117.542 44.9727H119.705V46.4006H118.984L117.457 51.5326C117.288 52.0981 117.019 52.494 116.651 52.7626C116.284 53.0171 115.846 53.1585 115.322 53.1585H113.64L114.064 51.7023H115.167C115.308 51.7023 115.421 51.6457 115.52 51.5185C115.619 51.3912 115.704 51.1792 115.775 50.8823L113.272 44.9727H115.167Z" fill="#F57F3B"/>
<path d="M120.61 46.7118C120.61 46.4573 120.652 46.2028 120.751 45.9766C120.85 45.7504 120.992 45.5384 121.19 45.3687C121.388 45.1991 121.628 45.0435 121.911 44.9446C122.193 44.8315 122.533 44.7891 122.914 44.7891C123.296 44.7891 123.635 44.8456 123.918 44.9587C124.201 45.0718 124.441 45.2273 124.639 45.4111C124.837 45.6091 124.979 45.8353 125.063 46.1039C125.162 46.3725 125.205 46.6553 125.205 46.9663H123.862C123.833 46.7966 123.791 46.6553 123.734 46.5422C123.678 46.429 123.593 46.3442 123.508 46.2877C123.423 46.2311 123.324 46.1887 123.211 46.1604C123.098 46.1322 122.999 46.118 122.9 46.118C122.674 46.118 122.533 46.1746 122.448 46.2735C122.363 46.3725 122.335 46.4856 122.335 46.5987C122.335 46.8108 122.434 46.9663 122.618 47.0653C122.815 47.1642 123.042 47.249 123.31 47.3197C123.536 47.3763 123.763 47.4611 124.003 47.5459C124.243 47.6308 124.47 47.7439 124.668 47.8852C124.865 48.0266 125.021 48.1963 125.162 48.4084C125.29 48.6204 125.36 48.8749 125.36 49.1859C125.36 49.497 125.36 49.3414 125.36 49.4687C125.36 49.5959 125.318 49.7232 125.261 49.8645C125.205 50.0059 125.134 50.1473 125.035 50.3028C124.936 50.4583 124.795 50.5997 124.611 50.7128C124.427 50.8259 124.215 50.939 123.946 51.0097C123.678 51.0945 123.353 51.1228 122.971 51.1228C122.589 51.1228 122.165 51.0663 121.868 50.9673C121.571 50.8683 121.317 50.7411 121.119 50.5856C120.921 50.4301 120.765 50.2604 120.666 50.0766C120.553 49.8928 120.483 49.709 120.44 49.5394C120.398 49.3697 120.37 49.2283 120.355 49.1011V48.8466H121.741C121.741 48.9315 121.741 49.0304 121.783 49.1294C121.812 49.2425 121.868 49.3415 121.953 49.4263C122.038 49.5252 122.165 49.5959 122.321 49.6666C122.476 49.7373 122.688 49.7656 122.929 49.7656C123.169 49.7656 123.225 49.7656 123.324 49.709C123.423 49.6666 123.494 49.6242 123.551 49.5677C123.607 49.5111 123.635 49.4546 123.65 49.398C123.664 49.3414 123.65 49.299 123.65 49.2566C123.65 49.0587 123.551 48.9032 123.367 48.8184C123.183 48.7335 122.943 48.6487 122.674 48.5639C122.462 48.5073 122.236 48.4366 121.995 48.3518C121.755 48.267 121.529 48.1539 121.331 48.0125C121.133 47.8711 120.949 47.6873 120.822 47.4753C120.681 47.2632 120.61 46.9946 120.61 46.6694V46.7118Z" fill="#F57F3B"/>
<path d="M126.18 44.9586H126.929V43.1914H128.795V44.9586H130.266V46.2452H128.795V49.0586C128.795 49.2141 128.795 49.3272 128.838 49.3838C128.866 49.4403 128.937 49.4686 129.05 49.4686H130.266V50.9248H128.583C128.06 50.9248 127.65 50.7976 127.353 50.529C127.056 50.2745 126.915 49.8503 126.915 49.2848V46.2452H126.18V44.9586Z" fill="#F57F3B"/>
<path d="M132.81 44.9727L134.182 48.5919L135.186 44.9727H137.349V46.4006H136.628L135.101 51.5326C134.931 52.0981 134.663 52.494 134.295 52.7626C133.927 53.0171 133.489 53.1585 132.966 53.1585H131.284L131.708 51.7023H132.81C132.952 51.7023 133.065 51.6457 133.164 51.5185C133.263 51.3912 133.348 51.1792 133.418 50.8823L130.916 44.9727H132.81Z" fill="#F57F3B"/>
<path d="M141.916 46.3866C141.689 46.3018 141.506 46.2735 141.364 46.2735C141.223 46.2735 140.982 46.3159 140.827 46.4007C140.671 46.4856 140.53 46.5987 140.403 46.7542C140.29 46.9097 140.191 47.0794 140.134 47.2914C140.078 47.4894 140.035 47.7156 140.035 47.9559C140.035 48.1962 140.064 48.4225 140.134 48.6345C140.191 48.8466 140.29 49.0304 140.403 49.1859C140.516 49.3414 140.657 49.4687 140.813 49.5535C140.968 49.6383 141.138 49.6949 141.336 49.6949C141.534 49.6949 141.548 49.6949 141.689 49.6524C141.817 49.6242 141.944 49.5818 142.071 49.5393C142.198 49.4969 142.311 49.4404 142.425 49.3697C142.538 49.299 142.637 49.2424 142.707 49.1718L143.598 50.0766C143.315 50.4017 142.99 50.6704 142.58 50.8542C142.184 51.0379 141.732 51.1369 141.251 51.1369C140.77 51.1369 140.445 51.0662 140.078 50.9248C139.71 50.7835 139.385 50.5855 139.116 50.3169C138.834 50.0483 138.621 49.7231 138.466 49.3273C138.31 48.9314 138.226 48.4931 138.226 47.9983C138.226 47.5035 138.31 47.0511 138.466 46.6552C138.621 46.2594 138.834 45.92 139.102 45.6373C139.371 45.3545 139.696 45.1425 140.064 44.9869C140.431 44.8314 140.827 44.7607 141.237 44.7607C141.647 44.7607 142.198 44.8597 142.608 45.0718C143.018 45.2838 143.372 45.5525 143.64 45.9059V46.938H142.594C142.368 46.6694 142.156 46.4856 141.93 46.4007L141.916 46.3866Z" fill="#F57F3B"/>
<path d="M149.409 48.7197V50.911H144.263L147.048 46.4152H144.56V44.959H149.607L146.836 49.4548H147.995V48.7197H149.409Z" fill="#F57F3B"/>
<path d="M154.442 47.3051C154.442 46.5841 154.188 46.2165 153.693 46.2165C153.198 46.2165 153.184 46.3154 153.014 46.5134C152.83 46.7113 152.717 46.9516 152.689 47.2627V50.9385H150.809V44.9865H152.491L152.548 45.4813C152.745 45.2692 152.986 45.0996 153.269 44.9723C153.551 44.8451 153.834 44.7744 154.145 44.7744C154.456 44.7744 154.711 44.831 154.965 44.9441C155.22 45.0572 155.446 45.2268 155.644 45.4248C155.842 45.6227 155.983 45.863 156.096 46.1317C156.209 46.4003 156.266 46.683 156.266 46.9941V49.5106H156.987V50.9385H154.456V47.3192L154.442 47.3051Z" fill="#F57F3B"/>
<path d="M157.977 48.0266C157.977 47.5883 158.047 47.1642 158.203 46.7683C158.358 46.3725 158.556 46.019 158.811 45.7221C159.065 45.4252 159.362 45.1849 159.687 45.0152C160.012 44.8456 160.366 44.7607 160.719 44.7607C161.073 44.7607 161.257 44.8173 161.511 44.9304C161.766 45.0435 162.034 45.2132 162.274 45.4535V44.9869H164.155V49.5111H164.876V50.939H162.6L162.444 50.3593C162.26 50.5997 162.034 50.7835 161.751 50.9248C161.469 51.0662 161.143 51.1369 160.762 51.1369C160.38 51.1369 159.984 51.0521 159.659 50.8824C159.32 50.7128 159.023 50.4866 158.782 50.2038C158.542 49.9211 158.344 49.5959 158.203 49.2142C158.061 48.8466 157.991 48.4507 157.991 48.0266H157.977ZM159.843 47.97C159.843 48.2104 159.871 48.4225 159.942 48.6345C159.998 48.8466 160.097 49.0304 160.21 49.1859C160.323 49.3414 160.465 49.4687 160.606 49.5535C160.762 49.6383 160.931 49.6949 161.101 49.6949C161.426 49.6949 161.709 49.5393 161.949 49.2424C162.19 48.9455 162.303 48.5214 162.303 47.9842C162.303 47.4469 162.274 47.4752 162.204 47.2631C162.147 47.0511 162.048 46.8531 161.949 46.6976C161.836 46.5421 161.709 46.4149 161.568 46.33C161.426 46.2452 161.271 46.2028 161.101 46.2028C160.931 46.2028 160.762 46.2452 160.606 46.3442C160.451 46.4431 160.323 46.5704 160.21 46.74C160.097 46.9097 160.012 47.0935 159.942 47.3056C159.885 47.5176 159.843 47.7297 159.843 47.97Z" fill="#F57F3B"/>
<path d="M29.6198 73.2397H28.6169L27.9855 70.6768H28.1341L27.5026 73.2397H26.4998L25.6641 69.5625H26.6112L27.0569 72.1439L27.7441 69.5625H28.3755L29.0626 72.1439L29.5084 69.5625H30.4555L29.6198 73.2397Z" fill="#808080"/>
<path d="M32.8895 72.4783C33.0567 72.4783 33.2238 72.4783 33.3538 72.404C33.4838 72.3297 33.5952 72.3112 33.6695 72.2555L34.0224 72.9612C33.9295 73.0355 33.781 73.1097 33.5767 73.184C33.3724 73.2583 33.1124 73.2955 32.8338 73.2955C32.5552 73.2955 32.3138 73.2397 32.0724 73.1469C31.831 73.054 31.6267 72.924 31.4409 72.7569C31.2552 72.5897 31.1252 72.3855 31.0138 72.144C30.9024 71.9026 30.8652 71.6612 30.8652 71.3826C30.8652 71.104 30.9209 70.8626 31.0138 70.6212C31.1067 70.3797 31.2552 70.194 31.4409 70.0083C31.6267 69.8412 31.831 69.6926 32.0724 69.5997C32.3138 69.5069 32.5738 69.4512 32.8338 69.4512C33.0938 69.4512 33.3724 69.4883 33.5767 69.5626C33.781 69.6369 33.9295 69.7112 34.0224 69.7855L33.6695 70.4912C33.5952 70.4355 33.5024 70.3983 33.3538 70.3426C33.2052 70.2869 33.0567 70.2683 32.8895 70.2683C32.7224 70.2683 32.5367 70.3055 32.3881 70.3612C32.2395 70.4169 32.1281 70.4912 32.0352 70.6026C31.9424 70.6955 31.8681 70.8255 31.8309 70.9555C31.7938 71.0855 31.7567 71.2155 31.7567 71.364C31.7567 71.5126 31.7567 71.6426 31.8309 71.7726C31.8681 71.9026 31.9424 72.014 32.0352 72.1255C32.1281 72.2369 32.2395 72.3112 32.3881 72.3669C32.5367 72.4226 32.6852 72.4598 32.8895 72.4598V72.4783Z" fill="#808080"/>
<path d="M34.5969 69.5625H37.6055L35.7855 72.4968H37.4941V73.2211H34.3369L36.1569 70.2868H34.5969V69.5625Z" fill="#808080"/>
<path d="M38.0518 69.5625H40.3918V70.2868H38.8689V71.0297H40.3732V71.7354H38.8689V72.4968H40.3918V73.2211H38.0518V69.5439V69.5625Z" fill="#808080"/>
<path d="M42.3598 69.507C42.5826 69.507 42.7869 69.507 42.954 69.5812C43.1212 69.637 43.2698 69.6927 43.3626 69.7484C43.474 69.8041 43.5298 69.8412 43.5483 69.8598L43.1398 70.5284C43.1026 70.5284 43.0655 70.4727 42.9912 70.4355C42.9169 70.3984 42.8426 70.3612 42.7312 70.3241C42.6198 70.287 42.5269 70.2684 42.434 70.2684C42.3412 70.2684 42.174 70.2684 42.0812 70.3427C41.9883 70.3984 41.9512 70.4727 41.9512 70.5655C41.9512 70.6584 41.9512 70.6955 42.0255 70.7512C42.0812 70.807 42.1369 70.8627 42.2483 70.8998C42.3412 70.9555 42.4712 71.0112 42.6198 71.067C42.7498 71.1227 42.8798 71.1784 43.0098 71.2527C43.1212 71.327 43.2326 71.4012 43.3255 71.4941C43.4183 71.587 43.4926 71.6984 43.5483 71.8098C43.604 71.9398 43.6226 72.0698 43.6226 72.2184C43.6226 72.367 43.5855 72.5712 43.5112 72.7012C43.4369 72.8312 43.3255 72.9427 43.1955 73.0355C43.0655 73.1284 42.9169 73.1841 42.7498 73.2398C42.5826 73.277 42.4155 73.3141 42.2298 73.3141C42.044 73.3141 41.7469 73.277 41.5612 73.2212C41.3569 73.1655 41.2083 73.1098 41.0783 73.0355C40.9483 72.9612 40.874 72.9241 40.8555 72.9055L41.264 72.1998C41.264 72.1998 41.3383 72.237 41.394 72.2741C41.4498 72.3112 41.5426 72.3484 41.6355 72.3855C41.7283 72.4227 41.8212 72.4598 41.9326 72.4784C42.044 72.497 42.1369 72.5155 42.2483 72.5155C42.4155 72.5155 42.5455 72.4784 42.6383 72.4227C42.7312 72.3484 42.7683 72.2741 42.7683 72.1627C42.7683 72.0512 42.7683 72.0141 42.694 71.9398C42.6383 71.8841 42.564 71.8098 42.4526 71.7541C42.3412 71.6984 42.2112 71.6427 42.044 71.5684C41.8769 71.5127 41.7283 71.4198 41.5983 71.327C41.4498 71.2341 41.3383 71.1227 41.264 70.9741C41.1712 70.8441 41.134 70.6584 41.134 70.4541C41.134 70.2498 41.1898 70.0641 41.3012 69.9155C41.4126 69.767 41.5612 69.6555 41.7655 69.5627C41.9512 69.4884 42.1555 69.4327 42.3783 69.4327V69.507H42.3598ZM42.0255 69.4141L41.784 69.0798L42.694 68.2998L43.1026 68.8012L42.044 69.4141H42.0255Z" fill="#808080"/>
<path d="M44.904 70.3239H44.9597V73.2397H44.124V69.5625H45.2569L46.7426 72.4597H46.6869V69.5625H47.5226V73.2397H46.3897L44.904 70.3239Z" fill="#808080"/>
<path d="M49.0281 69.5625H48.1924V73.2397H49.0281V69.5625Z" fill="#808080"/>
<path d="M49.6592 69.5625H51.9992V70.2868H50.4763V71.0297H51.9806V71.7354H50.4763V72.4968H51.9992V73.2211H49.6592V69.5439V69.5625Z" fill="#808080"/>
<path d="M54.3388 72.1068C54.3388 72.3482 54.283 72.5711 54.1902 72.7568C54.0973 72.9425 53.9673 73.0725 53.7816 73.1654C53.6145 73.2582 53.4102 73.3139 53.1688 73.3139C52.9273 73.3139 52.8531 73.3139 52.7231 73.2397C52.5931 73.2025 52.5002 73.1468 52.4259 73.0911C52.3516 73.0354 52.3145 72.9982 52.2959 72.9797L52.6116 72.2554C52.6116 72.2925 52.6673 72.3297 52.7045 72.3668C52.7416 72.4039 52.7973 72.4411 52.853 72.4597C52.9088 72.4782 52.983 72.4968 53.0573 72.4968C53.1316 72.4968 53.2245 72.4968 53.2802 72.4411C53.3359 72.3854 53.3916 72.3482 53.4473 72.2739C53.4845 72.1997 53.503 72.0882 53.503 71.9396V69.5625H54.3388V72.1068Z" fill="#808080"/>
<path d="M60.152 73.2397H59.1492L58.5177 70.6768H58.6663L58.0349 73.2397H57.032L56.1963 69.5625H57.1434L57.5891 72.1439L58.2763 69.5625H58.9077L59.5949 72.1439L60.0406 69.5625H60.9877L60.152 73.2397Z" fill="#808080"/>
<path d="M62.4181 71.9211L61.1553 69.5625H62.1581L62.8267 70.9554L63.4953 69.5625H64.4981L63.2353 71.9211V73.2397H62.3996V71.9211H62.4181Z" fill="#808080"/>
<path d="M64.8684 69.5625H67.877L66.057 72.4968H67.7655V73.2211H64.6084L66.4284 70.2868H64.8684V69.5625ZM66.2613 69.2654C66.1498 69.2654 66.057 69.2283 65.9641 69.1354C65.8713 69.0425 65.8527 68.9497 65.8527 68.8568C65.8527 68.764 65.8898 68.6525 65.9641 68.5597C66.0384 68.4668 66.1313 68.4297 66.2613 68.4297C66.3913 68.4297 66.4655 68.4668 66.5398 68.5597C66.6141 68.634 66.6513 68.7454 66.6513 68.8568C66.6513 68.9683 66.6141 69.0611 66.5398 69.154C66.4655 69.2468 66.3727 69.2654 66.2613 69.2654Z" fill="#808080"/>
<path d="M69.6605 69.5069C69.8834 69.5069 70.0877 69.5069 70.2548 69.5812C70.422 69.6369 70.5705 69.6926 70.6634 69.7483C70.7748 69.804 70.8305 69.8412 70.8491 69.8598L70.4405 70.5283C70.4034 70.5283 70.3663 70.4726 70.292 70.4355C70.2177 70.3983 70.1434 70.3612 70.032 70.3241C69.9205 70.2869 69.8277 70.2683 69.7348 70.2683C69.642 70.2683 69.4748 70.2683 69.382 70.3426C69.2891 70.3983 69.252 70.4726 69.252 70.5655C69.252 70.6583 69.252 70.6955 69.3263 70.7512C69.4005 70.8069 69.4377 70.8626 69.5491 70.8998C69.6605 70.9369 69.772 71.0112 69.9205 71.0669C70.0505 71.1226 70.1805 71.1783 70.3105 71.2526C70.422 71.3269 70.5334 71.4012 70.6263 71.4941C70.7191 71.5869 70.7934 71.6983 70.8491 71.8098C70.9048 71.9398 70.9234 72.0698 70.9234 72.2183C70.9234 72.3669 70.8863 72.5712 70.812 72.7012C70.7377 72.8312 70.6263 72.9426 70.4963 73.0355C70.3663 73.1283 70.2177 73.1841 70.0505 73.2398C69.8834 73.2769 69.7163 73.3141 69.5305 73.3141C69.3448 73.3141 69.0477 73.2769 68.862 73.2212C68.6577 73.1655 68.5091 73.1098 68.3791 73.0355C68.2491 72.9612 68.1748 72.9241 68.1562 72.9055L68.5648 72.1998C68.5648 72.1998 68.6391 72.2369 68.6948 72.2741C68.7505 72.3112 68.8434 72.3483 68.9363 72.3855C69.0291 72.4226 69.122 72.4598 69.2334 72.4783C69.3448 72.4969 69.4377 72.5155 69.5491 72.5155C69.7163 72.5155 69.8462 72.4783 69.9391 72.4226C70.032 72.3483 70.0691 72.2741 70.0691 72.1626C70.0691 72.0512 70.0691 72.0141 69.9948 71.9398C69.9391 71.8841 69.8648 71.8098 69.7534 71.7541C69.642 71.6983 69.512 71.6426 69.3448 71.5683C69.1777 71.5126 69.0291 71.4198 68.8991 71.3269C68.7691 71.2341 68.6391 71.1226 68.5648 70.9741C68.472 70.8441 68.4348 70.6583 68.4348 70.454C68.4348 70.2498 68.4905 70.0641 68.602 69.9155C68.7134 69.7669 68.862 69.6555 69.0663 69.5626C69.2705 69.4698 69.4563 69.4326 69.6791 69.4326V69.5069H69.6605Z" fill="#808080"/>
<path d="M71.4983 69.5625H74.5069L72.6869 72.4968H74.3954V73.2211H71.2383L73.0583 70.2868H71.4983V69.5625Z" fill="#808080"/>
<path d="M76.1234 69.5625H76.9591L78.4077 73.2397H77.5162L77.2562 72.4968H75.8448L75.5662 73.2397H74.6748L76.1234 69.5625ZM76.1234 71.7725H76.9777L76.5505 70.5654L76.1234 71.7725Z" fill="#808080"/>
<path d="M81.5092 69.5069C81.732 69.5069 81.9363 69.5069 82.1035 69.5812C82.2706 69.6369 82.4192 69.6926 82.512 69.7483C82.6235 69.804 82.6792 69.8412 82.6977 69.8598L82.2892 70.5283C82.252 70.5283 82.2149 70.4726 82.1406 70.4355C82.0663 70.3983 81.992 70.3612 81.8806 70.3241C81.7692 70.2869 81.6763 70.2683 81.5835 70.2683C81.4906 70.2683 81.3235 70.2683 81.2306 70.3426C81.1377 70.3983 81.1006 70.4726 81.1006 70.5655C81.1006 70.6583 81.1006 70.6955 81.1749 70.7512C81.2492 70.8069 81.2863 70.8626 81.3977 70.8998C81.5092 70.9369 81.6206 71.0112 81.7692 71.0669C81.8992 71.1226 82.0292 71.1783 82.1592 71.2526C82.2706 71.3269 82.382 71.4012 82.4749 71.4941C82.5677 71.5869 82.642 71.6983 82.6977 71.8098C82.7535 71.9398 82.772 72.0698 82.772 72.2183C82.772 72.3669 82.7349 72.5712 82.6606 72.7012C82.5863 72.8312 82.4749 72.9426 82.3449 73.0355C82.2149 73.1283 82.0663 73.1841 81.8992 73.2398C81.732 73.2769 81.5649 73.3141 81.3792 73.3141C81.1935 73.3141 80.8963 73.2769 80.7106 73.2212C80.5063 73.1655 80.3577 73.1098 80.2277 73.0355C80.0977 72.9612 80.0235 72.9241 80.0049 72.9055L80.4135 72.1998C80.4135 72.1998 80.4877 72.2369 80.5435 72.2741C80.5992 72.3112 80.692 72.3483 80.7849 72.3855C80.8777 72.4226 80.9706 72.4598 81.082 72.4783C81.1935 72.4969 81.2863 72.5155 81.3977 72.5155C81.5649 72.5155 81.6949 72.4783 81.7878 72.4226C81.8806 72.3483 81.9177 72.2741 81.9177 72.1626C81.9177 72.0512 81.9177 72.0141 81.8435 71.9398C81.7877 71.8841 81.7135 71.8098 81.602 71.7541C81.4906 71.6983 81.3606 71.6426 81.1935 71.5683C81.0263 71.5126 80.8777 71.4198 80.7477 71.3269C80.6177 71.2341 80.4877 71.1226 80.4135 70.9741C80.3206 70.8441 80.2835 70.6583 80.2835 70.454C80.2835 70.2498 80.3392 70.0641 80.4506 69.9155C80.562 69.7669 80.7106 69.6555 80.9149 69.5626C81.1192 69.4698 81.3049 69.4326 81.5277 69.4326V69.5069H81.5092Z" fill="#808080"/>
<path d="M83.3469 69.5625H86.3555L84.5355 72.4968H86.2441V73.2211H83.0869L84.9069 70.2868H83.3469V69.5625Z" fill="#808080"/>
<path d="M88.2875 71.3454L89.6804 73.2397H88.6961L87.5633 71.6425V73.2397H86.7275V69.5625H87.5633V71.0668L88.6033 69.5625H89.5318L88.2875 71.3454Z" fill="#808080"/>
<path d="M89.9033 71.4011C89.9033 71.1411 89.959 70.8811 90.0519 70.6583C90.1448 70.4354 90.2748 70.2311 90.4419 70.0454C90.609 69.8783 90.8133 69.7297 91.0362 69.6369C91.259 69.544 91.519 69.4883 91.779 69.4883C92.039 69.4883 92.299 69.544 92.5219 69.6369C92.7448 69.7297 92.9491 69.8597 93.1162 70.0454C93.2833 70.2126 93.4133 70.4169 93.5062 70.6583C93.599 70.8811 93.6548 71.1411 93.6548 71.4011C93.6548 71.6611 93.6176 71.9211 93.5248 72.144C93.4319 72.3669 93.3019 72.5711 93.1348 72.7569C92.9676 72.9426 92.7633 73.0726 92.5405 73.1654C92.3176 73.2583 92.0576 73.314 91.779 73.314C91.5005 73.314 91.2405 73.2583 91.0176 73.1654C90.7948 73.0726 90.5905 72.9426 90.4233 72.7569C90.2562 72.5711 90.1262 72.3854 90.0333 72.144C89.9405 71.9026 89.9033 71.6611 89.9033 71.4011ZM90.7576 71.4011C90.7576 71.6054 90.7948 71.7911 90.8876 71.9769C90.9805 72.144 91.0919 72.274 91.2405 72.3854C91.389 72.4783 91.5748 72.534 91.779 72.534C91.9833 72.534 92.1505 72.4783 92.3176 72.3854C92.4662 72.2926 92.5962 72.144 92.6705 71.9769C92.7448 71.8097 92.8005 71.624 92.8005 71.4011C92.8005 71.1783 92.7633 71.0111 92.6705 70.8254C92.5776 70.6583 92.4662 70.5283 92.3176 70.4169C92.169 70.324 91.9833 70.2683 91.779 70.2683C91.5748 70.2683 91.4076 70.324 91.2405 70.4169C91.0919 70.5097 90.9619 70.6583 90.8876 70.8254C90.7948 70.9926 90.7576 71.1783 90.7576 71.4011Z" fill="#808080"/>
<path d="M94.3411 73.2396V71.8653L94.0068 72.1253V71.4568L94.3411 71.1968V69.5811H95.1583V70.5468L95.6226 70.1753V70.8625L95.1583 71.2339V72.5339H96.4211V73.2582H94.3226L94.3411 73.2396Z" fill="#808080"/>
<path d="M98.1497 69.5625H98.9855L100.434 73.2397H99.5426L99.2826 72.4968H97.8712L97.5926 73.2397H96.7012L98.1497 69.5625ZM98.1683 71.7725H99.0226L98.5955 70.5654L98.1683 71.7725Z" fill="#808080"/>
<path d="M102.217 69.5625H104.557V70.2868H103.034V71.0297H104.538V71.7354H103.034V72.4968H104.557V73.2211H102.217V69.5439V69.5625Z" fill="#808080"/>
<path d="M106.692 71.3454L108.085 73.2397H107.1L105.968 71.6425V73.2397H105.132V69.5625H105.968V71.0668L107.008 69.5625H107.936L106.692 71.3454Z" fill="#808080"/>
<path d="M108.289 71.4011C108.289 71.1411 108.345 70.8811 108.438 70.6583C108.531 70.4354 108.66 70.2311 108.828 70.0454C108.995 69.8783 109.199 69.7297 109.422 69.6369C109.645 69.544 109.905 69.4883 110.165 69.4883C110.425 69.4883 110.685 69.544 110.908 69.6369C111.131 69.7297 111.335 69.8597 111.502 70.0454C111.669 70.2126 111.799 70.4169 111.892 70.6583C111.985 70.8811 112.041 71.1411 112.041 71.4011C112.041 71.6611 112.003 71.9211 111.91 72.144C111.818 72.3669 111.688 72.5711 111.521 72.7569C111.353 72.9426 111.149 73.0726 110.926 73.1654C110.703 73.2583 110.443 73.314 110.165 73.314C109.886 73.314 109.626 73.2583 109.403 73.1654C109.18 73.0726 108.976 72.9426 108.809 72.7569C108.642 72.5711 108.512 72.3854 108.419 72.144C108.326 71.9026 108.289 71.6611 108.289 71.4011ZM109.162 71.4011C109.162 71.6054 109.199 71.7911 109.292 71.9769C109.385 72.144 109.496 72.274 109.645 72.3854C109.793 72.4783 109.979 72.534 110.183 72.534C110.388 72.534 110.555 72.4783 110.722 72.3854C110.871 72.2926 111 72.144 111.075 71.9769C111.149 71.8097 111.205 71.624 111.205 71.4011C111.205 71.1783 111.168 71.0111 111.075 70.8254C110.982 70.6583 110.871 70.5283 110.722 70.4169C110.573 70.324 110.388 70.2683 110.183 70.2683C109.979 70.2683 109.812 70.324 109.645 70.4169C109.496 70.5097 109.366 70.6583 109.292 70.8254C109.199 70.9926 109.162 71.1783 109.162 71.4011Z" fill="#808080"/>
<path d="M112.561 69.5625H113.396V72.4968H114.733V73.2211H112.561V69.5439V69.5625Z" fill="#808080"/>
<path d="M115.143 71.4011C115.143 71.1411 115.198 70.8811 115.291 70.6583C115.384 70.4354 115.514 70.2311 115.681 70.0454C115.848 69.8783 116.053 69.7297 116.275 69.6369C116.498 69.544 116.758 69.4883 117.018 69.4883C117.278 69.4883 117.538 69.544 117.761 69.6369C117.984 69.7297 118.188 69.8597 118.355 70.0454C118.523 70.2126 118.653 70.4169 118.745 70.6583C118.838 70.8811 118.894 71.1411 118.894 71.4011C118.894 71.6611 118.857 71.9211 118.764 72.144C118.671 72.3669 118.541 72.5711 118.374 72.7569C118.207 72.9426 118.003 73.0726 117.78 73.1654C117.557 73.2583 117.297 73.314 117.018 73.314C116.74 73.314 116.48 73.2583 116.257 73.1654C116.034 73.0726 115.83 72.9426 115.663 72.7569C115.495 72.5711 115.365 72.3854 115.273 72.144C115.18 71.9026 115.143 71.6611 115.143 71.4011ZM116.015 71.4011C116.015 71.6054 116.053 71.7911 116.145 71.9769C116.238 72.144 116.35 72.274 116.498 72.3854C116.647 72.4783 116.833 72.534 117.037 72.534C117.241 72.534 117.408 72.4783 117.575 72.3854C117.724 72.2926 117.854 72.144 117.928 71.9769C118.003 71.8097 118.058 71.624 118.058 71.4011C118.058 71.1783 118.021 71.0111 117.928 70.8254C117.835 70.6583 117.724 70.5283 117.575 70.4169C117.427 70.324 117.241 70.2683 117.037 70.2683C116.833 70.2683 116.665 70.324 116.498 70.4169C116.35 70.5097 116.22 70.6583 116.145 70.8254C116.053 70.9926 116.015 71.1783 116.015 71.4011Z" fill="#808080"/>
<path d="M121.14 71.1968H123.016V71.4383C123.016 71.6983 122.979 71.9397 122.886 72.1811C122.793 72.404 122.663 72.6083 122.515 72.7754C122.347 72.9426 122.162 73.0911 121.939 73.184C121.716 73.2768 121.456 73.3326 121.196 73.3326C120.936 73.3326 120.657 73.2768 120.416 73.184C120.193 73.0911 119.989 72.9426 119.822 72.7754C119.655 72.6083 119.525 72.404 119.432 72.1626C119.339 71.9211 119.302 71.6797 119.302 71.4197C119.302 71.1597 119.339 70.9183 119.432 70.6768C119.525 70.4354 119.655 70.2497 119.822 70.064C119.989 69.8968 120.193 69.7483 120.416 69.6554C120.639 69.5625 120.899 69.5068 121.196 69.5068C121.493 69.5068 121.623 69.5068 121.809 69.5811C121.995 69.6368 122.143 69.6926 122.273 69.7854C122.403 69.8597 122.515 69.9526 122.607 70.064C122.7 70.1754 122.775 70.2683 122.83 70.3611L122.032 70.7325C121.957 70.6211 121.846 70.5097 121.716 70.4354C121.586 70.3426 121.419 70.3054 121.196 70.3054C120.973 70.3054 120.917 70.3426 120.787 70.3983C120.657 70.454 120.546 70.5468 120.472 70.6397C120.379 70.7511 120.305 70.8626 120.267 70.9926C120.212 71.1226 120.193 71.2711 120.193 71.4197C120.193 71.5683 120.193 71.7168 120.267 71.8468C120.342 71.9768 120.379 72.1068 120.472 72.1997C120.565 72.3111 120.676 72.3854 120.787 72.4411C120.917 72.4968 121.047 72.534 121.196 72.534C121.345 72.534 121.456 72.534 121.549 72.4783C121.642 72.4226 121.753 72.404 121.827 72.3297C121.902 72.274 121.976 72.1997 122.013 72.1068C122.05 72.014 122.087 71.9211 122.087 71.8283H121.159V71.1968H121.14Z" fill="#808080"/>
<path d="M124.353 69.5625H123.518V73.2397H124.353V69.5625Z" fill="#808080"/>
<path d="M125.857 69.5625H125.021V73.2397H125.857V69.5625Z" fill="#808080"/>
<path d="M128.829 69.5625H127.993V73.2397H128.829V69.5625Z" fill="#808080"/>
<path d="M131.002 69.5625H134.011L132.191 72.4968H133.899V73.2211H130.742L132.562 70.2868H131.002V69.5625Z" fill="#808080"/>
<path d="M135.626 69.5625H136.462L137.911 73.2397H137.019L136.759 72.4968H135.348L135.069 73.2397H134.178L135.626 69.5625ZM135.626 71.7725H136.481L136.053 70.5654L135.626 71.7725Z" fill="#808080"/>
<path d="M138.188 69.5625H139.693C139.897 69.5625 140.101 69.5996 140.268 69.6925C140.436 69.7854 140.566 69.9154 140.658 70.0825C140.751 70.2496 140.807 70.4539 140.807 70.6768C140.807 70.8996 140.77 71.1039 140.677 71.2525C140.584 71.4011 140.491 71.5125 140.38 71.5868C140.268 71.6611 140.157 71.6982 140.064 71.7168L140.956 73.2397H140.027L139.228 71.7911H139.024V73.2397H138.188V69.5625ZM139.024 71.2154H139.396C139.544 71.2154 139.674 71.1782 139.786 71.1039C139.897 71.0296 139.953 70.8996 139.953 70.7139C139.953 70.5282 139.897 70.3982 139.786 70.3239C139.674 70.2497 139.544 70.2125 139.396 70.2125H139.024V71.2154Z" fill="#808080"/>
<path d="M141.55 69.5625H144.559L142.739 72.4968H144.447V73.2211H141.29L143.11 70.2868H141.55V69.5625Z" fill="#808080"/>
<path d="M146.174 69.5625H147.01L148.458 73.2397H147.567L147.307 72.4968H145.896L145.617 73.2397H144.726L146.174 69.5625ZM146.174 71.7725H147.028L146.601 70.5654L146.174 71.7725ZM147.734 74.4468C147.66 74.4468 147.567 74.4468 147.493 74.3911C147.4 74.3539 147.326 74.2982 147.27 74.2239C147.214 74.1497 147.177 74.0568 147.177 73.9268C147.177 73.7968 147.177 73.7411 147.251 73.6482C147.326 73.5554 147.363 73.4439 147.437 73.3511C147.511 73.2582 147.586 73.1839 147.641 73.1097L147.883 73.2211C147.846 73.2582 147.808 73.3139 147.771 73.3882C147.734 73.4625 147.697 73.5368 147.66 73.6111C147.623 73.6854 147.623 73.7597 147.623 73.8339C147.623 73.9082 147.623 73.9454 147.678 73.9825C147.716 74.0197 147.753 74.0197 147.808 74.0197C147.864 74.0197 147.901 74.0197 147.938 73.9825C147.976 73.9454 148.013 73.9268 148.031 73.8897L148.347 74.1311C148.31 74.2054 148.236 74.2611 148.124 74.3354C148.013 74.4097 147.883 74.4282 147.753 74.4282H147.734V74.4468Z" fill="#808080"/>
<path d="M148.774 69.5625H149.87C150.26 69.5625 150.594 69.6368 150.836 69.8039C151.096 69.9525 151.282 70.1754 151.412 70.4539C151.542 70.7325 151.597 71.0482 151.597 71.4011C151.597 71.7539 151.542 72.0696 151.412 72.3482C151.282 72.6268 151.096 72.8497 150.836 72.9982C150.576 73.1468 150.26 73.2397 149.87 73.2397H148.774V69.5625ZM149.61 70.3054V72.4968H149.814C150.019 72.4968 150.204 72.4411 150.334 72.3482C150.464 72.2554 150.576 72.1254 150.65 71.9582C150.724 71.7911 150.762 71.6054 150.762 71.4011C150.762 71.1968 150.724 71.0111 150.669 70.8439C150.613 70.6768 150.502 70.5468 150.353 70.4539C150.223 70.3611 150.037 70.3054 149.833 70.3054H149.61Z" fill="#808080"/>
<path d="M152.174 69.5625H155.183L153.363 72.4968H155.071V73.2211H151.914L153.734 70.2868H152.174V69.5625Z" fill="#808080"/>
<path d="M156.797 69.5625H157.633L159.081 73.2397H158.19L157.93 72.4968H156.519L156.24 73.2397H155.349L156.797 69.5625ZM156.797 71.7725H157.651L157.224 70.5654L156.797 71.7725Z" fill="#808080"/>
<path d="M160.159 70.3239H160.215V73.2397H159.379V69.5625H160.512L161.998 72.4597H161.942V69.5625H162.777V73.2397H161.645L160.159 70.3239Z" fill="#808080"/>
<path d="M164.263 69.5625H163.428V73.2397H164.263V69.5625Z" fill="#808080"/>
<path d="M166.083 69.5625H166.919L168.368 73.2397H167.476L167.216 72.4968H165.805L165.526 73.2397H164.635L166.083 69.5625ZM166.083 71.7725H166.938L166.51 70.5654L166.083 71.7725Z" fill="#808080"/>
<path d="M29.6012 79.9252H28.5984L27.9669 77.3623H28.1155L27.4841 79.9252H26.4812L25.6455 76.248H26.5926L27.0384 78.8295L27.7255 76.248H28.3569L29.0441 78.8295L29.4898 76.248H30.437L29.6012 79.9252Z" fill="#808080"/>
<path d="M36.1569 79.9252H35.154L34.5226 77.3623H34.6712L34.0398 79.9252H33.0369L32.2012 76.248H33.1483L33.594 78.8295L34.2812 76.248H34.9126L35.5997 78.8295L36.0455 76.248H36.9926L36.1569 79.9252Z" fill="#808080"/>
<path d="M38.6634 76.248H39.4991L40.9477 79.9252H40.0563L39.7963 79.1823H38.3848L38.1063 79.9252H37.2148L38.6634 76.248ZM38.6634 78.4581H39.5177L39.0906 77.2509L38.6634 78.4581Z" fill="#808080"/>
<path d="M41.2275 76.248H42.7318C42.9361 76.248 43.1404 76.2852 43.3075 76.378C43.4747 76.4709 43.6047 76.6009 43.6976 76.768C43.7904 76.9352 43.8461 77.1395 43.8461 77.3623C43.8461 77.5852 43.809 77.7895 43.7161 77.9381C43.6233 78.0866 43.5304 78.1981 43.419 78.2723C43.3076 78.3466 43.1961 78.3838 43.1033 78.4023L43.9947 79.9252H43.0661L42.2675 78.4766H42.0633V79.9252H41.2275V76.248ZM42.0633 77.9009H42.4347C42.5833 77.9009 42.7133 77.8638 42.8247 77.7895C42.9361 77.7152 42.9918 77.5852 42.9918 77.3995C42.9918 77.2138 42.9361 77.0838 42.8247 77.0095C42.7133 76.9352 42.5833 76.898 42.4347 76.898H42.0633V77.9009Z" fill="#808080"/>
<path d="M45.8891 76.1934C46.1119 76.1934 46.3162 76.1934 46.4834 76.2677C46.6505 76.3234 46.7991 76.3791 46.8919 76.4349C47.0033 76.4906 47.0591 76.5277 47.0776 76.5463L46.6691 77.2149C46.6319 77.2149 46.5948 77.1591 46.5205 77.122C46.4462 77.0849 46.3719 77.0477 46.2605 77.0106C46.1491 76.9734 46.0562 76.9549 45.9633 76.9549C45.8705 76.9549 45.7033 76.9549 45.6105 77.0291C45.5176 77.0849 45.4805 77.1592 45.4805 77.252C45.4805 77.3449 45.4805 77.382 45.5548 77.4377C45.6291 77.4934 45.6662 77.5491 45.7776 77.5863C45.8891 77.6234 46.0005 77.6977 46.1491 77.7534C46.2791 77.8092 46.4091 77.8649 46.5391 77.9392C46.6505 78.0134 46.7619 78.0877 46.8548 78.1806C46.9476 78.2734 47.0219 78.3849 47.0776 78.4963C47.1333 78.6263 47.1519 78.7563 47.1519 78.9049C47.1519 79.0534 47.1148 79.2577 47.0405 79.3877C46.9662 79.5177 46.8548 79.6292 46.7248 79.722C46.5948 79.8149 46.4462 79.8706 46.279 79.9263C46.1119 79.9634 45.9448 80.0006 45.7591 80.0006C45.5733 80.0006 45.2762 79.9634 45.0905 79.9077C44.8862 79.852 44.7376 79.7963 44.6076 79.722C44.4776 79.6477 44.4033 79.6106 44.3848 79.592L44.7933 78.8863C44.7933 78.8863 44.8676 78.9234 44.9233 78.9606C44.9791 78.9977 45.0719 79.0349 45.1648 79.072C45.2576 79.1092 45.3505 79.1463 45.4619 79.1649C45.5733 79.1834 45.6662 79.202 45.7776 79.202C45.9448 79.202 46.0748 79.1649 46.1676 79.1092C46.2605 79.0349 46.2976 78.9606 46.2976 78.8491C46.2976 78.7377 46.2976 78.7006 46.2233 78.6263C46.1676 78.5706 46.0933 78.4963 45.9819 78.4406C45.8705 78.3849 45.7405 78.3291 45.5733 78.2549C45.4062 78.1991 45.2576 78.1063 45.1276 78.0134C44.9976 77.9206 44.8676 77.8092 44.7933 77.6606C44.7005 77.5306 44.6633 77.3449 44.6633 77.1406C44.6633 76.9363 44.7191 76.7506 44.8305 76.602C44.9419 76.4534 45.0905 76.342 45.2948 76.2491C45.4991 76.1563 45.6848 76.1191 45.9076 76.1191V76.1934H45.8891Z" fill="#808080"/>
<path d="M47.7082 76.248H50.7168L48.8968 79.1823H50.6054V79.9066H47.4482L49.2683 76.9723H47.7082V76.248Z" fill="#808080"/>
<path d="M52.3333 76.248H53.1691L54.6176 79.9252H53.7262L53.4662 79.1823H52.0548L51.7762 79.9252H50.8848L52.3333 76.248ZM52.3333 78.4581H53.1876L52.7605 77.2509L52.3333 78.4581Z" fill="#808080"/>
<path d="M58.6842 79.9252H57.6814L57.0499 77.3623H57.1985L56.5671 79.9252H55.5642L54.7285 76.248H55.6757L56.1214 78.8295L56.8085 76.248H57.44L58.1271 78.8295L58.5728 76.248H59.52L58.6842 79.9252Z" fill="#808080"/>
<path d="M60.8758 76.248H60.04V79.9252H60.8758V76.248Z" fill="#808080"/>
<path d="M61.5068 76.249H63.8469V76.9733H62.324V77.7162H63.8283V78.4219H62.324V79.1833H63.8469V79.9076H61.5068V76.2305V76.249Z" fill="#808080"/>
</svg>
