<svg xmlns="http://www.w3.org/2000/svg" width="623.992" height="244.554" viewBox="0 0 623.992 244.554">
  <path id="DZIEŃ_OTWARTY" data-name="DZIEŃ OTWARTY" d="M321.656-114.53h27.352l-19.145,21.8H306.929Zm20.724,3H323.25l-10.673,15.8h15.928ZM6.882-89.13H42.926A49.106,49.106,0,0,1,61.237-85.7,44.306,44.306,0,0,1,75.9-76.176,43.327,43.327,0,0,1,85.62-61.792a46.546,46.546,0,0,1,3.51,17.977,46.546,46.546,0,0,1-3.51,17.977A43.327,43.327,0,0,1,75.9-11.454,44.306,44.306,0,0,1,61.237-1.935,49.106,49.106,0,0,1,42.926,1.5H6.882ZM42.926-1.5c24.63,0,43.2-18.191,43.2-42.315S67.556-86.13,42.926-86.13H9.882V-1.5Zm48.03-87.63H161.9v16.1l-39.9,52.989H162.79V1.5H90.448V-14.6l.3-.4,39.593-52.589H90.956Zm67.945,3H93.956v15.542h42.4L93.448-13.6V-1.5H159.79V-17.042h-43.8L158.9-74.035Zm13.589-3h22.685V1.5H172.49Zm19.685,3H175.49V-1.5h16.685Zm16.764-3h61.166v21.542H231.624V-54.84h34.29V-33.3h-34.29v13.256H270.74V1.5h-61.8Zm58.166,3H211.939V-1.5h55.8V-17.042H228.624V-36.3h34.29V-51.84h-34.29V-70.588h38.481Zm13.335-3h22.106L336.7-38.909V-89.13h22.685V1.5H337.152L303.125-48.707V1.5H280.44Zm20.518,3H283.44V-1.5h16.685V-58.481L338.742-1.5h17.644V-86.13H339.7v56.967ZM26.567-70.588H42.418a26.332,26.332,0,0,1,18.959,7.7,26.894,26.894,0,0,1,7.56,19.071,26.894,26.894,0,0,1-7.56,19.071,26.332,26.332,0,0,1-18.959,7.7H26.567ZM42.418-20.042c13.408,0,23.519-10.22,23.519-23.773S55.826-67.588,42.418-67.588H29.567v47.546Zm8,56.388c13.164,0,25.286,4.769,34.133,13.43A46.253,46.253,0,0,1,98.274,83.185a46.253,46.253,0,0,1-13.722,33.409c-8.847,8.66-20.969,13.43-34.133,13.43s-25.286-4.769-34.133-13.43A46.253,46.253,0,0,1,2.564,83.185,46.253,46.253,0,0,1,16.286,49.776C25.133,41.115,37.255,36.346,50.419,36.346Zm0,90.678c25.572,0,44.855-18.847,44.855-43.839S75.99,39.346,50.419,39.346,5.564,58.193,5.564,83.185,24.848,127.024,50.419,127.024ZM97.179,37.87h68.659V59.412H142.851V128.5H120.166V59.412H97.179Zm65.659,3H100.179V56.412h22.987V125.5h16.685V56.412h22.987Zm5-3h24.924L209.8,94.492,226.85,37.87h20.005l.324,1.062,16.96,55.56L280.948,37.87h24.418l-30.6,90.63H252.889L236.612,75.035,220.572,128.5h-22Zm22.695,3H172.019l28.7,84.63H218.34l18.251-60.835L255.111,125.5h17.5l28.578-84.63h-18L264.18,104.9,244.635,40.87H229.08L209.8,104.9Zm135.077-3h25.318l34.15,90.63H360.248l-5.334-15.367H321.353L315.892,128.5H291.586Zm23.242,3H327.683L295.916,125.5h17.858l5.461-15.367h37.813l5.334,15.367h18.355Zm40.686-3h41c18.232,0,31.98,13.257,31.98,30.837a28.977,28.977,0,0,1-17.421,26.98L466.443,128.5H438.454L420.039,98.528h-7.821V128.5H389.533Zm71.378,87.63L440.58,94.26l1.731-.664a26.933,26.933,0,0,0,12.487-9.56,26.432,26.432,0,0,0,4.711-15.329c0-15.87-12.459-27.837-28.98-27.837h-38V125.5h16.685V95.528h12.5L440.132,125.5Zm5.2-87.63h68.659V59.412H511.786V128.5H489.1V59.412H466.114Zm65.659,3H469.114V56.412H492.1V125.5h16.685V56.412h22.987Zm3.218-3h25.956l20.074,35.647L600.974,37.87h25.583L592.05,97.3v31.2H569.365V97.3Zm24.2,3h-19L572.365,96.5v29H589.05v-29l.2-.349L621.346,40.87H602.732l-21.7,38.775ZM50.419,55.269a27.5,27.5,0,0,1,19.717,7.984,28.977,28.977,0,0,1,0,39.865A27.5,27.5,0,0,1,50.419,111.1,27.5,27.5,0,0,1,30.7,103.117a28.977,28.977,0,0,1,0-39.865A27.5,27.5,0,0,1,50.419,55.269Zm0,52.832c14.06,0,24.662-10.712,24.662-24.916s-10.6-24.916-24.662-24.916S25.757,68.981,25.757,83.185,36.359,108.1,50.419,108.1Zm358.8-51.689h20.931c6.937,0,12.168,5.395,12.168,12.549a12.542,12.542,0,0,1-3.474,8.842,12.014,12.014,0,0,1-8.694,3.58H409.218Zm20.931,21.971a9.094,9.094,0,0,0,9.168-9.422c0-5.533-3.856-9.549-9.168-9.549H412.218V78.383Zm-92.075-21.8,13.55,38.392h-27.1Zm9.31,35.392-9.31-26.378-9.31,26.378Z" transform="translate(-2.564 114.53)" fill="#f5682c"/>
</svg>
