<svg xmlns="http://www.w3.org/2000/svg" width="610.8" height="334.68" viewBox="0 0 610.8 334.68">
  <path id="Zapisz_się_na_dzień_otwarty" data-name="Zapisz się na dzień otwarty" d="M307.8,8.26c8.954,0,17.22,2.765,23.277,7.785A25.387,25.387,0,0,1,340.62,35.8v1.5H314.1V35.8a3.486,3.486,0,0,0-1.668-2.8,8.59,8.59,0,0,0-4.872-1.335c-2.763,0-5.7,1.072-5.7,3.06,0,.387,0,1.414,2.659,2.675a55.675,55.675,0,0,0,8.351,2.693c5.831,1.591,13.088,3.571,18.79,7.508a23.322,23.322,0,0,1,7.274,7.812A24.544,24.544,0,0,1,341.82,67.48,28.422,28.422,0,0,1,339.2,79.623a27.358,27.358,0,0,1-7.185,9.327,32.461,32.461,0,0,1-10.659,5.922,40.8,40.8,0,0,1-13.08,2.068c-9.363,0-17.994-2.91-24.3-8.2A26.4,26.4,0,0,1,274.14,68.32v-1.5h26.52v1.5a4.464,4.464,0,0,0,2.119,3.536,9.9,9.9,0,0,0,5.741,1.684c3.88,0,6.78-1.806,6.78-3.42,0-2.263-5.344-3.92-11-5.674-5.832-1.808-13.089-4.058-18.791-8.136a24.484,24.484,0,0,1-7.271-7.9,24.056,24.056,0,0,1-2.9-11.887,27.051,27.051,0,0,1,2.516-11.6,26.3,26.3,0,0,1,6.927-8.954,31.419,31.419,0,0,1,10.31-5.705A39.786,39.786,0,0,1,307.8,8.26ZM337.57,34.3c-.881-13.237-13.383-23.04-29.77-23.04-8.245,0-15.732,2.485-21.083,7A23.173,23.173,0,0,0,278.34,36.52a20.055,20.055,0,0,0,8.912,17.351c5.308,3.8,12.016,5.876,17.934,7.71a61.029,61.029,0,0,1,8.791,3.168,10.207,10.207,0,0,1,3,2.123A4.722,4.722,0,0,1,318.3,70.12c0,1.877-1.143,3.578-3.218,4.79a13.194,13.194,0,0,1-6.562,1.63,12.917,12.917,0,0,1-7.489-2.246A8.563,8.563,0,0,1,298.6,71.7a6.825,6.825,0,0,1-.768-1.881H277.188c.883,13.853,13.953,24.12,31.092,24.12,8.512,0,16.254-2.585,21.8-7.28a24.361,24.361,0,0,0,8.739-19.18c0-7.6-2.9-13.3-8.865-17.416-5.281-3.646-11.972-5.472-17.875-7.082a57.282,57.282,0,0,1-8.846-2.876,9.686,9.686,0,0,1-3.038-2.084,4.763,4.763,0,0,1-1.336-3.3,5.362,5.362,0,0,1,2.9-4.651,12.58,12.58,0,0,1,12.392.466,6.688,6.688,0,0,1,2.76,3.765ZM475.2,8.26c8.954,0,17.22,2.765,23.277,7.785A25.387,25.387,0,0,1,508.02,35.8v1.5H481.5V35.8a3.486,3.486,0,0,0-1.668-2.8,8.59,8.59,0,0,0-4.872-1.335c-2.763,0-5.7,1.072-5.7,3.06,0,.387,0,1.414,2.659,2.675a55.675,55.675,0,0,0,8.351,2.693c5.831,1.591,13.088,3.571,18.79,7.508a23.322,23.322,0,0,1,7.274,7.812A24.544,24.544,0,0,1,509.22,67.48,28.422,28.422,0,0,1,506.6,79.623a27.358,27.358,0,0,1-7.185,9.327,32.461,32.461,0,0,1-10.659,5.922,40.8,40.8,0,0,1-13.08,2.068c-9.363,0-17.994-2.91-24.3-8.2A26.4,26.4,0,0,1,441.54,68.32v-1.5h26.52v1.5a4.464,4.464,0,0,0,2.119,3.536,9.9,9.9,0,0,0,5.741,1.684c3.88,0,6.78-1.806,6.78-3.42,0-2.263-5.344-3.92-11-5.674-5.832-1.808-13.089-4.058-18.791-8.136a24.484,24.484,0,0,1-7.271-7.9,24.056,24.056,0,0,1-2.9-11.887,27.051,27.051,0,0,1,2.516-11.6,26.3,26.3,0,0,1,6.927-8.954,31.419,31.419,0,0,1,10.31-5.705A39.786,39.786,0,0,1,475.2,8.26ZM504.97,34.3c-.881-13.237-13.383-23.04-29.77-23.04-8.245,0-15.732,2.485-21.083,7A23.173,23.173,0,0,0,445.74,36.52a20.055,20.055,0,0,0,8.912,17.351c5.308,3.8,12.016,5.876,17.934,7.71a61.027,61.027,0,0,1,8.791,3.168,10.207,10.207,0,0,1,3,2.123A4.722,4.722,0,0,1,485.7,70.12c0,1.877-1.143,3.578-3.218,4.79a13.194,13.194,0,0,1-6.562,1.63,12.917,12.917,0,0,1-7.489-2.246A8.563,8.563,0,0,1,466,71.7a6.824,6.824,0,0,1-.768-1.881H444.587c.883,13.853,13.953,24.12,31.092,24.12,8.512,0,16.254-2.585,21.8-7.28a24.361,24.361,0,0,0,8.739-19.18c0-7.6-2.9-13.3-8.865-17.416-5.281-3.646-11.972-5.472-17.875-7.082a57.282,57.282,0,0,1-8.846-2.876,9.686,9.686,0,0,1-3.038-2.084,4.763,4.763,0,0,1-1.336-3.3,5.362,5.362,0,0,1,2.9-4.651,12.58,12.58,0,0,1,12.392.466,6.688,6.688,0,0,1,2.76,3.765ZM2.58,9.7H70.74V28.146L38.187,70.9H71.58V92.069L101.185,9.7h29.11l30.838,85.8h-28.3l-3.72-11.4H101.888l-3.72,11.4H2.1V77.054l.307-.4L34.653,34.3H2.58Zm65.16,3H5.58V31.3H40.707L5.1,78.066V92.5H68.58V73.9H32.133L67.74,27.134Zm60.445,0h-24.89L74.613,92.5H95.992l3.72-11.4h31.577l3.72,11.4h21.858Zm34.955-3h41.1A32.734,32.734,0,0,1,227.1,18.517,30.248,30.248,0,0,1,236.34,40.6,30.248,30.248,0,0,1,227.1,62.683,32.734,32.734,0,0,1,204.24,71.5H189.06v24H163.14Zm41.1,58.8c16.59,0,29.1-11.994,29.1-27.9s-12.51-27.9-29.1-27.9h-38.1V92.5h19.92v-24ZM241.38,9.7H267.3V95.5H241.38Zm22.92,3H244.38V92.5H264.3Zm80.04-3H412.5V28.146L379.947,70.9H413.34V95.5H343.86V77.054L376.413,34.3H344.34Zm65.16,3H347.34V31.3h35.127L346.86,78.066V92.5h63.48V73.9H373.893L409.5,27.134Zm106.56-3h25.92V95.5H516.06Zm22.92,3H519.06V92.5h19.92Zm13.68-3H611.7V34.3H578.58v5.76h29.28v24.6H578.58V70.9H612.3V95.5h-1.435c-4.272,1.824-7.4,3.692-9.288,5.554a5.872,5.872,0,0,0-2.117,4.106,2.438,2.438,0,0,0,.99,2.119,4.2,4.2,0,0,0,2.43.7,12.014,12.014,0,0,0,6.727-2.538l2.453-2.021v18.971l-.655.447a20.2,20.2,0,0,1-5.965,2.505,29.145,29.145,0,0,1-7.24,1c-10.638,0-18.66-6.99-18.66-16.26a17.23,17.23,0,0,1,3.7-10.48,21.324,21.324,0,0,1,4.15-4.1H552.66Zm56.04,3H555.66V92.5h37.38l.573,2.886a19.283,19.283,0,0,0-7.991,6.034,14.259,14.259,0,0,0-3.082,8.66c0,7.559,6.732,13.26,15.66,13.26a25.022,25.022,0,0,0,10.86-2.575V109.341a14.376,14.376,0,0,1-6.18,1.639c-3.092,0-6.42-1.821-6.42-5.82,0-4.488,4.2-8.5,12.84-12.252V73.9H575.58V61.66h29.28V43.06H575.58V31.3H608.7ZM186.06,31.3h17.7a8.917,8.917,0,0,1,6.478,2.692,9.747,9.747,0,0,1,0,13.216A8.917,8.917,0,0,1,203.76,49.9h-17.7Zm17.7,15.6a5.942,5.942,0,0,0,4.322-1.778,6.752,6.752,0,0,0,0-9.044A5.942,5.942,0,0,0,203.76,34.3h-14.7V46.9ZM115.571,31.736l9.962,31.244H105.458Zm5.857,28.244-5.878-18.436L109.582,59.98Zm375.618,48.48H528l-18.624,21.96h-25.95Zm24.476,3H498.715l-9.9,15.96h19.17ZM5.34,132.7H30.577L55.62,171.473V132.7H81.54v85.8H56.3l-.443-.686-24.6-38.087V218.5H5.34Zm23.6,3H8.34v79.8H28.26V169.553L57.937,215.5h20.6V135.7H58.62v45.947Zm85.442-3h29.11l30.838,85.8h-28.3l-3.72-11.4H115.088l-3.72,11.4H83.547Zm27,3h-24.89L87.813,215.5h21.379l3.72-11.4h31.577l3.72,11.4h21.859Zm59.555-3h34.5a47.259,47.259,0,0,1,17.486,3.25,42.286,42.286,0,0,1,14,9.01,40.976,40.976,0,0,1,9.272,13.619,44.954,44.954,0,0,1,0,34.043,40.976,40.976,0,0,1-9.272,13.619,42.286,42.286,0,0,1-14,9.01,47.259,47.259,0,0,1-17.486,3.25h-34.5Zm34.5,82.8c23.431,0,41.1-17.153,41.1-39.9s-17.669-39.9-41.1-39.9h-31.5v79.8Zm44.22-82.8h68.16v18.446L315.267,193.9H348.66v24.6H279.18V200.054L311.733,157.3H279.66Zm65.16,3H282.66v18.6h35.127L282.18,201.066V215.5h63.48V196.9H309.213l35.607-46.766Zm11.28-3h25.92v85.8H356.1Zm22.92,3H359.1v79.8h19.92Zm13.68-3h59.04v24.6H418.62v5.76H447.9v24.6H418.62v6.24h33.72v24.6H392.7Zm56.04,3H395.7v79.8h53.64V196.9H415.62V184.66H444.9v-18.6H415.62V154.3h33.12Zm10.8-3h25.237l25.043,38.773V132.7h25.92v85.8H510.5L485.46,179.727V218.5H459.54Zm23.6,3h-20.6v79.8h19.92V169.553L512.137,215.5h20.6V135.7H512.82v45.947ZM223.86,154.3h11.1a20.9,20.9,0,0,1,15.032,6.116,22.138,22.138,0,0,1,0,30.368A20.9,20.9,0,0,1,234.96,196.9h-11.1Zm11.1,39.6c10.3,0,18.06-7.867,18.06-18.3s-7.764-18.3-18.06-18.3h-8.1v36.6ZM128.771,154.736l9.962,31.244H118.658Zm5.857,28.244-5.878-18.436-5.967,18.436ZM47.04,254.26c12.519,0,24.05,4.514,32.471,12.71a44.811,44.811,0,0,1,0,63.26c-8.421,8.2-19.953,12.71-32.471,12.71s-24.05-4.514-32.471-12.71a44.811,44.811,0,0,1,0-63.26C22.99,258.774,34.521,254.26,47.04,254.26Zm0,85.68c24.252,0,42.54-17.772,42.54-41.34s-18.288-41.34-42.54-41.34S4.5,275.032,4.5,298.6,22.788,339.94,47.04,339.94ZM91.02,255.7h65.76v24.6H136.86v61.2H110.94V280.3H91.02Zm62.76,3H94.02v18.6h19.92v61.2h19.92V277.3h19.92Zm3.613-3h28.54l13.134,46.247L211.981,255.7h22.912l13.134,46.247L260.941,255.7h27.94l-28.6,85.8H235.146l-11.939-42.17L211.377,341.5H186.242Zm26.274,3h-22.1L188.4,338.5h20.7l14.091-50.23,14.221,50.23h20.7l26.6-79.8h-21.5l-15.166,54.313L232.627,258.7H214.259l-15.166,54.313Zm120.558-3h29.11l30.838,85.8h-28.3l-3.72-11.4H304.928l-3.72,11.4H273.387Zm27,3h-24.89l-28.682,79.8h21.379l3.72-11.4h31.577l3.72,11.4h21.859Zm34.955-3h39.9a32.884,32.884,0,0,1,22.859,8.738,30.6,30.6,0,0,1,8.125,30.1,28.1,28.1,0,0,1-3.175,7.19,29.109,29.109,0,0,1-10.007,9.669l17.96,30.1H409.863l-13.8-25.68H392.1V341.5H366.18Zm70.378,82.8L419.7,310.243l1.411-.734A25.685,25.685,0,0,0,435.18,286.36c0-15.769-12.51-27.66-29.1-27.66h-36.9v79.8H389.1V312.82h8.757l13.8,25.68Zm3.662-82.8h94.333l15.282,29.545L565,255.7h29.01L562.5,313.144V341.5H536.58V313.144l-30.6-55.779V280.3H486.06v61.2H460.14V280.3H440.22Zm62.76,3H443.22v18.6h19.92v61.2h19.92V277.3h19.92Zm29.747,0H510.134l29.446,53.676V338.5H559.5V312.376L588.946,258.7h-22.11l-16.991,33.095ZM47.04,276.34a21.872,21.872,0,0,1,15.69,6.369,23.112,23.112,0,0,1,0,31.783,21.872,21.872,0,0,1-15.69,6.369,21.872,21.872,0,0,1-15.69-6.369,23.112,23.112,0,0,1,0-31.783A21.872,21.872,0,0,1,47.04,276.34Zm0,41.52c10.843,0,19.02-8.28,19.02-19.26s-8.177-19.26-19.02-19.26-19.02,8.28-19.02,19.26S36.2,317.86,47.04,317.86ZM389.1,277.3h16.5a8.917,8.917,0,0,1,6.478,2.692,9.747,9.747,0,0,1,0,13.216A8.917,8.917,0,0,1,405.6,295.9H389.1Zm16.5,15.6a5.942,5.942,0,0,0,4.322-1.778,6.752,6.752,0,0,0,0-9.044A5.942,5.942,0,0,0,405.6,280.3H392.1v12.6Zm-86.989-15.164,9.962,31.244H308.5Zm5.857,28.244-5.878-18.436-5.967,18.436Z" transform="translate(-1.5 -8.26)" fill="#f5682c"/>
</svg>
